<?xml version="1.0" encoding="UTF-8" standalone="no"?>
<!-- Created with Inkscape (http://www.inkscape.org/) -->

<svg
   width="512mm"
   height="512mm"
   viewBox="0 0 512 512"
   version="1.1"
   id="svg1"
   inkscape:version="1.4.2 (f4327f4, 2025-05-13)"
   sodipodi:docname="Clouds.svg"
   inkscape:export-filename="..\..\Content\Sprites\Clouds.png"
   inkscape:export-xdpi="25.4"
   inkscape:export-ydpi="25.4"
   inkscape:export-batch-path="Export"
   inkscape:export-batch-name=""
   xmlns:inkscape="http://www.inkscape.org/namespaces/inkscape"
   xmlns:sodipodi="http://sodipodi.sourceforge.net/DTD/sodipodi-0.dtd"
   xmlns="http://www.w3.org/2000/svg"
   xmlns:svg="http://www.w3.org/2000/svg">
  <sodipodi:namedview
     id="namedview1"
     pagecolor="#ffffff"
     bordercolor="#000000"
     borderopacity="0.25"
     inkscape:showpageshadow="2"
     inkscape:pageopacity="0.0"
     inkscape:pagecheckerboard="true"
     inkscape:deskcolor="#d1d1d1"
     inkscape:document-units="mm"
     inkscape:zoom="1.1433196"
     inkscape:cx="666.91761"
     inkscape:cy="632.80641"
     inkscape:window-width="3840"
     inkscape:window-height="2054"
     inkscape:window-x="-11"
     inkscape:window-y="-11"
     inkscape:window-maximized="1"
     inkscape:current-layer="layer1"
     showguides="true">
    <sodipodi:guide
       position="7.636753,463.63388"
       orientation="1,0"
       id="guide1"
       inkscape:locked="false" />
    <sodipodi:guide
       position="212.44058,562.44884"
       orientation="1,0"
       id="guide2"
       inkscape:locked="false" />
    <sodipodi:guide
       position="229.56542,658.71821"
       orientation="1,0"
       id="guide3"
       inkscape:locked="false" />
    <sodipodi:guide
       position="-282.32844,363.43043"
       orientation="0,-1"
       id="guide4"
       inkscape:locked="false" />
    <sodipodi:guide
       position="-88.864035,352.78526"
       orientation="0,-1"
       id="guide5"
       inkscape:locked="false" />
    <sodipodi:guide
       position="-272.60894,214.39803"
       orientation="0,-1"
       id="guide6"
       inkscape:locked="false" />
    <sodipodi:guide
       position="442.93168,630.48537"
       orientation="1,0"
       id="guide7"
       inkscape:locked="false" />
    <sodipodi:guide
       position="427.19534,637.42787"
       orientation="1,0"
       id="guide8"
       inkscape:locked="false" />
  </sodipodi:namedview>
  <defs
     id="defs1">
    <clipPath
       clipPathUnits="userSpaceOnUse"
       id="clipPath4">
      <path
         d="M 0,980 H 1400 V 0 H 0 Z"
         transform="translate(-647.45372,-709.23132)"
         id="path4" />
    </clipPath>
    <clipPath
       clipPathUnits="userSpaceOnUse"
       id="clipPath6">
      <path
         d="M 0,980 H 1400 V 0 H 0 Z"
         transform="translate(-647.45372,-719.72202)"
         id="path6" />
    </clipPath>
    <clipPath
       clipPathUnits="userSpaceOnUse"
       id="clipPath8">
      <path
         d="M 0,980 H 1400 V 0 H 0 Z"
         transform="translate(-647.45372,-738.79612)"
         id="path8" />
    </clipPath>
    <clipPath
       clipPathUnits="userSpaceOnUse"
       id="clipPath10">
      <path
         d="M 0,980 H 1400 V 0 H 0 Z"
         transform="translate(-1306.1937,-699.65982)"
         id="path10" />
    </clipPath>
    <clipPath
       clipPathUnits="userSpaceOnUse"
       id="clipPath12">
      <path
         d="M 0,980 H 1400 V 0 H 0 Z"
         transform="translate(-1306.1937,-709.19682)"
         id="path12" />
    </clipPath>
    <clipPath
       clipPathUnits="userSpaceOnUse"
       id="clipPath14">
      <path
         d="M 0,980 H 1400 V 0 H 0 Z"
         transform="translate(-1306.1937,-728.27092)"
         id="path14" />
    </clipPath>
    <clipPath
       clipPathUnits="userSpaceOnUse"
       id="clipPath22">
      <path
         d="M 0,980 H 1400 V 0 H 0 Z"
         transform="translate(-1266.2901,-236.1294)"
         id="path22" />
    </clipPath>
    <clipPath
       clipPathUnits="userSpaceOnUse"
       id="clipPath24">
      <path
         d="M 0,980 H 1400 V 0 H 0 Z"
         transform="translate(-1266.2901,-245.6664)"
         id="path24" />
    </clipPath>
    <clipPath
       clipPathUnits="userSpaceOnUse"
       id="clipPath26">
      <path
         d="M 0,980 H 1400 V 0 H 0 Z"
         transform="translate(-1266.2901,-264.74051)"
         id="path26" />
    </clipPath>
    <clipPath
       clipPathUnits="userSpaceOnUse"
       id="clipPath114">
      <path
         d="M 0,980 H 1400 V 0 H 0 Z"
         transform="translate(-759.50882,-46.330776)"
         id="path114" />
    </clipPath>
    <clipPath
       clipPathUnits="userSpaceOnUse"
       id="clipPath116">
      <path
         d="M 0,980 H 1400 V 0 H 0 Z"
         transform="translate(-771.83889,-46.330776)"
         id="path116" />
    </clipPath>
    <clipPath
       clipPathUnits="userSpaceOnUse"
       id="clipPath118">
      <path
         d="M 0,980 H 1400 V 0 H 0 Z"
         transform="translate(-787.03419,-43.157001)"
         id="path118" />
    </clipPath>
    <clipPath
       clipPathUnits="userSpaceOnUse"
       id="clipPath120">
      <path
         d="M 0,980 H 1400 V 0 H 0 Z"
         transform="translate(-801.3682,-39.155976)"
         id="path120" />
    </clipPath>
    <clipPath
       clipPathUnits="userSpaceOnUse"
       id="clipPath16">
      <path
         d="M 0,980 H 1400 V 0 H 0 Z"
         transform="translate(-557.16131,-307.50441)"
         id="path16" />
    </clipPath>
    <clipPath
       clipPathUnits="userSpaceOnUse"
       id="clipPath18">
      <path
         d="M 0,980 H 1400 V 0 H 0 Z"
         transform="translate(-557.16131,-317.04141)"
         id="path18" />
    </clipPath>
    <clipPath
       clipPathUnits="userSpaceOnUse"
       id="clipPath20">
      <path
         d="M 0,980 H 1400 V 0 H 0 Z"
         transform="translate(-557.16131,-336.11541)"
         id="path20" />
    </clipPath>
  </defs>
  <g
     inkscape:label="Layer 1"
     inkscape:groupmode="layer"
     id="layer1">
    <g
       id="g2"
       transform="matrix(0.26458333,0,0,0.26458333,-21.372745,-4.1246044)"
       inkscape:label="Cloud01">
      <path
         id="path3"
         d="m 0,0 c 18.318,51.557 -7.343,108.669 -57.33,127.568 -22.999,8.693 -47.102,7.689 -68.25,-0.857 -3.935,28.072 -22.291,53.073 -49.914,63.508 -31.226,11.816 -65.011,1.46 -85.391,-23.212 -14.171,18.387 -33.254,33.108 -56.191,41.781 -66.481,25.14 -140.136,-10.078 -164.504,-78.657 -0.896,-2.552 -1.704,-5.103 -2.443,-7.666 -30.834,7.36 -62.872,-9.9 -74.051,-41.34 -9.039,-25.438 -1.842,-52.918 16.129,-70.396 -14.082,-52.633 13.059,-108.463 63.642,-127.584 29.457,-11.138 60.634,-7.436 85.953,7.34 7.135,-5.15 14.94,-9.522 23.491,-12.76 34.069,-12.88 70.431,-5.92 97.365,15.089 12.017,-16.474 28.554,-29.734 48.718,-37.352 55.633,-21.033 117.275,8.439 137.673,65.829 1.647,4.658 2.866,9.352 3.886,14.058 C -45.513,-61.052 -13.171,-37.059 0,0"
         style="fill:#009ea7;fill-opacity:1;fill-rule:nonzero;stroke:none"
         transform="matrix(1.3333333,0,0,-1.3333333,863.2716,361.02493)"
         clip-path="url(#clipPath4)" />
      <path
         id="path5"
         d="m 0,0 c 18.318,51.557 -7.343,108.669 -57.33,127.568 -22.999,8.693 -47.102,7.689 -68.25,-0.857 -3.935,28.072 -22.291,53.073 -49.914,63.508 -31.226,11.816 -65.011,1.46 -85.391,-23.212 -14.171,18.387 -33.254,33.108 -56.191,41.781 -66.481,25.14 -140.136,-10.078 -164.504,-78.657 -0.896,-2.552 -1.704,-5.103 -2.443,-7.666 -30.834,7.36 -62.872,-9.9 -74.051,-41.34 -9.039,-25.437 -1.842,-52.918 16.129,-70.396 -14.082,-52.633 13.059,-108.463 63.642,-127.584 29.457,-11.138 60.634,-7.436 85.953,7.34 7.135,-5.15 14.94,-9.522 23.491,-12.76 34.069,-12.88 70.431,-5.92 97.365,15.089 12.017,-16.474 28.554,-29.734 48.718,-37.352 55.633,-21.033 117.275,8.439 137.673,65.829 1.647,4.658 2.866,9.352 3.886,14.058 C -45.513,-61.052 -13.171,-37.059 0,0"
         style="fill:#d0ecf4;fill-opacity:1;fill-rule:nonzero;stroke:none"
         transform="matrix(1.3333333,0,0,-1.3333333,863.2716,347.03733)"
         clip-path="url(#clipPath6)" />
      <path
         id="path7"
         d="m 0,0 c 18.318,51.557 -7.343,108.669 -57.33,127.568 -22.999,8.693 -47.102,7.689 -68.25,-0.857 -3.935,28.072 -22.291,53.073 -49.914,63.508 -31.226,11.816 -65.011,1.46 -85.391,-23.212 -14.171,18.387 -33.254,33.108 -56.191,41.781 -66.481,25.14 -140.136,-10.078 -164.504,-78.657 -0.896,-2.552 -1.704,-5.103 -2.443,-7.666 -30.834,7.361 -62.872,-9.9 -74.051,-41.34 -9.039,-25.437 -1.842,-52.918 16.129,-70.396 -14.082,-52.633 13.059,-108.463 63.642,-127.584 29.457,-11.138 60.634,-7.436 85.953,7.34 7.135,-5.15 14.94,-9.522 23.491,-12.76 34.069,-12.879 70.431,-5.92 97.365,15.089 12.017,-16.474 28.554,-29.734 48.718,-37.352 55.633,-21.033 117.275,8.439 137.673,65.829 1.647,4.658 2.866,9.352 3.886,14.058 C -45.513,-61.052 -13.171,-37.059 0,0"
         style="fill:#ffffff;fill-opacity:1;fill-rule:nonzero;stroke:none"
         transform="matrix(1.3333333,0,0,-1.3333333,863.2716,321.6052)"
         clip-path="url(#clipPath8)" />
    </g>
    <g
       id="g3"
       transform="matrix(0.26458333,0,0,0.26458333,-23.220089,-3.0072253)"
       inkscape:label="Cloud02">
      <path
         id="path9"
         d="m 0,0 c 24.124,57.336 -8.334,121.301 -72.504,142.857 -29.622,9.958 -60.774,9.028 -88.165,-0.39 -6.651,10.504 -17.285,19.061 -30.912,23.638 -16.291,5.472 -33.52,4.125 -47.913,-2.369 -13.747,27.086 -39.049,49.473 -72.65,60.762 -67.196,22.578 -142.155,-7.799 -167.425,-67.834 -0.379,-0.907 -0.621,-1.836 -0.974,-2.759 -40.451,8.216 -82.478,-11.22 -97.484,-46.893 -13.03,-30.955 -1.709,-64.714 25.361,-84.637 -4.786,-6.264 -8.91,-13.045 -12.029,-20.465 -20.942,-49.76 7.226,-105.271 62.915,-123.98 34.909,-11.729 72.332,-6.211 100.565,11.783 7.473,-5.901 16.186,-10.769 26.083,-14.087 32.449,-10.902 67.657,-2.751 90.311,18.189 13.717,-14.178 31.486,-25.578 52.487,-32.639 67.207,-22.581 142.16,7.803 167.423,67.841 1.503,3.571 2.771,7.168 3.855,10.773 C -33.892,-48.16 -11.507,-27.361 0,0"
         style="fill:#009ea7;fill-opacity:1;fill-rule:nonzero;stroke:none"
         transform="matrix(1.3333333,0,0,-1.3333333,1741.5916,373.78693)"
         clip-path="url(#clipPath10)" />
      <path
         id="path11"
         d="m 0,0 c 24.124,57.336 -8.334,121.301 -72.504,142.857 -29.622,9.958 -60.774,9.028 -88.165,-0.39 -6.651,10.504 -17.285,19.061 -30.912,23.638 -16.291,5.472 -33.52,4.125 -47.913,-2.369 -13.747,27.086 -39.049,49.473 -72.65,60.762 -67.196,22.578 -142.155,-7.799 -167.425,-67.834 -0.379,-0.907 -0.621,-1.836 -0.974,-2.759 -40.451,8.216 -82.478,-11.22 -97.484,-46.893 -13.03,-30.955 -1.709,-64.715 25.361,-84.637 -4.786,-6.264 -8.91,-13.045 -12.029,-20.465 -20.942,-49.76 7.226,-105.271 62.915,-123.98 34.909,-11.729 72.332,-6.211 100.565,11.783 7.473,-5.901 16.186,-10.769 26.083,-14.087 32.449,-10.902 67.657,-2.751 90.311,18.189 13.717,-14.178 31.486,-25.578 52.487,-32.639 67.207,-22.581 142.16,7.803 167.423,67.841 1.503,3.571 2.771,7.168 3.855,10.773 C -33.892,-48.16 -11.507,-27.361 0,0"
         style="fill:#d0ecf4;fill-opacity:1;fill-rule:nonzero;stroke:none"
         transform="matrix(1.3333333,0,0,-1.3333333,1741.5916,361.07093)"
         clip-path="url(#clipPath12)" />
      <path
         id="path13"
         d="m 0,0 c 24.124,57.336 -8.334,121.301 -72.504,142.857 -29.622,9.958 -60.774,9.028 -88.165,-0.39 -6.651,10.504 -17.285,19.061 -30.912,23.638 -16.291,5.472 -33.52,4.125 -47.913,-2.369 -13.747,27.086 -39.049,49.473 -72.65,60.762 -67.196,22.578 -142.155,-7.799 -167.425,-67.834 -0.379,-0.907 -0.621,-1.836 -0.974,-2.759 -40.451,8.216 -82.478,-11.22 -97.484,-46.893 -13.03,-30.955 -1.709,-64.714 25.361,-84.637 -4.786,-6.264 -8.91,-13.045 -12.029,-20.465 -20.942,-49.76 7.226,-105.271 62.915,-123.98 34.909,-11.729 72.332,-6.211 100.565,11.783 7.473,-5.901 16.186,-10.769 26.083,-14.087 32.449,-10.902 67.657,-2.751 90.311,18.189 13.717,-14.178 31.486,-25.578 52.487,-32.639 67.207,-22.581 142.16,7.803 167.423,67.841 1.503,3.571 2.771,7.168 3.855,10.773 C -33.892,-48.16 -11.507,-27.361 0,0"
         style="fill:#fafcf8;fill-opacity:1;fill-rule:nonzero;stroke:none"
         transform="matrix(1.3333333,0,0,-1.3333333,1741.5916,335.6388)"
         clip-path="url(#clipPath14)" />
    </g>
    <g
       id="g4"
       transform="matrix(0.26458333,0,0,0.26458333,-18.380773,-31.340398)"
       inkscape:label="Cloud03">
      <path
         id="path15"
         d="m 0,0 c -9,0 -17.676,-1.413 -25.884,-3.954 -19.821,58.921 -73.62,101.188 -136.918,101.188 -61.803,0 -114.547,-40.289 -135.46,-97.027 -11.438,9.589 -25.949,15.356 -41.766,15.356 -31.264,0 -57.434,-22.442 -64.678,-52.689 -2.477,0.291 -4.986,0.472 -7.537,0.472 -36.854,0 -66.73,-31.138 -66.73,-69.55 0,-38.413 29.876,-69.554 66.73,-69.554 17.008,0 32.48,6.686 44.265,17.601 7.951,-43.832 44.829,-77 89.2,-77 17.21,0 33.244,5.08 46.96,13.745 24.608,-22.468 56.749,-36.191 92.036,-36.191 50.839,0 95.21,28.363 119.7,70.641 6.468,-1.524 13.171,-2.4 20.082,-2.4 50.168,0 90.84,42.391 90.84,94.681 C 90.84,-42.388 50.168,0 0,0"
         style="fill:#009ea7;fill-opacity:1;fill-rule:nonzero;stroke:none"
         transform="matrix(1.3333333,0,0,-1.3333333,742.88173,896.6608)"
         clip-path="url(#clipPath16)" />
      <path
         id="path17"
         d="m 0,0 c -9,0 -17.676,-1.413 -25.884,-3.954 -19.821,58.921 -73.62,101.188 -136.918,101.188 -61.803,0 -114.547,-40.289 -135.46,-97.027 -11.438,9.589 -25.949,15.356 -41.766,15.356 -31.264,0 -57.434,-22.442 -64.678,-52.689 -2.477,0.291 -4.986,0.473 -7.537,0.473 -36.854,0 -66.73,-31.139 -66.73,-69.551 0,-38.413 29.876,-69.554 66.73,-69.554 17.008,0 32.48,6.686 44.265,17.601 7.951,-43.832 44.829,-77 89.2,-77 17.21,0 33.244,5.08 46.96,13.745 24.608,-22.468 56.749,-36.191 92.036,-36.191 50.839,0 95.21,28.363 119.7,70.641 6.468,-1.524 13.171,-2.4 20.082,-2.4 50.168,0 90.84,42.391 90.84,94.681 C 90.84,-42.388 50.168,0 0,0"
         style="fill:#d0ecf4;fill-opacity:1;fill-rule:nonzero;stroke:none"
         transform="matrix(1.3333333,0,0,-1.3333333,742.88173,883.9448)"
         clip-path="url(#clipPath18)" />
      <path
         id="path19"
         d="m 0,0 c -9,0 -17.676,-1.413 -25.884,-3.954 -19.821,58.921 -73.62,101.188 -136.918,101.188 -61.803,0 -114.547,-40.289 -135.46,-97.027 -11.438,9.589 -25.949,15.356 -41.766,15.356 -31.264,0 -57.434,-22.442 -64.678,-52.689 -2.477,0.291 -4.986,0.473 -7.537,0.473 -36.854,0 -66.73,-31.139 -66.73,-69.551 0,-38.413 29.876,-69.554 66.73,-69.554 17.008,0 32.48,6.686 44.265,17.601 7.951,-43.832 44.829,-77 89.2,-77 17.21,0 33.244,5.08 46.96,13.745 24.608,-22.468 56.749,-36.191 92.036,-36.191 50.839,0 95.21,28.363 119.7,70.641 6.468,-1.524 13.171,-2.4 20.082,-2.4 50.168,0 90.84,42.391 90.84,94.681 C 90.84,-42.388 50.168,0 0,0"
         style="fill:#fafcf8;fill-opacity:1;fill-rule:nonzero;stroke:none"
         transform="matrix(1.3333333,0,0,-1.3333333,742.88173,858.5128)"
         clip-path="url(#clipPath20)" />
    </g>
    <g
       id="g5"
       transform="matrix(0.26458333,0,0,0.26458333,-28.938553,-31.578629)"
       inkscape:label="Cloud04">
      <path
         id="path21"
         d="m 0,0 c 5.501,10.351 8.404,21.538 8.404,32.893 0,29.309 -19.504,56.737 -50.958,71.549 -24.86,11.66 -55.403,14.201 -82.546,7.041 -33.397,36.892 -87.051,59.288 -143.777,59.288 -31.223,0 -62.058,-6.776 -89.237,-19.51 -18.217,-8.578 -34.211,-19.539 -47.68,-32.657 -20.159,-1.005 -39.942,-5.811 -57.539,-14.084 -40.332,-18.967 -65.374,-54.126 -65.374,-91.747 0,-37.67 25.042,-72.789 65.374,-91.718 7.638,-3.614 15.884,-6.578 24.665,-8.883 23.439,-59.671 91.702,-100.562 169.791,-100.562 31.211,0 62.046,6.727 89.225,19.461 7.881,3.693 15.423,7.928 22.588,12.665 36.288,-11.503 78.502,-8.933 112.616,7.11 40.319,18.929 65.372,54.058 65.372,91.718 C 20.924,-36.784 13.711,-17.126 0,0"
         style="fill:#009ea7;fill-opacity:1;fill-rule:nonzero;stroke:none"
         transform="matrix(1.3333333,0,0,-1.3333333,1688.3867,991.82747)"
         clip-path="url(#clipPath22)" />
      <path
         id="path23"
         d="m 0,0 c 5.501,10.351 8.404,21.538 8.404,32.893 0,29.309 -19.504,56.737 -50.958,71.549 -24.86,11.66 -55.403,14.201 -82.546,7.041 -33.397,36.892 -87.051,59.288 -143.777,59.288 -31.223,0 -62.058,-6.776 -89.237,-19.51 -18.217,-8.578 -34.211,-19.539 -47.68,-32.657 -20.159,-1.005 -39.942,-5.811 -57.539,-14.083 -40.332,-18.968 -65.374,-54.127 -65.374,-91.748 0,-37.67 25.042,-72.789 65.374,-91.718 7.638,-3.614 15.884,-6.578 24.665,-8.883 23.439,-59.671 91.702,-100.562 169.791,-100.562 31.211,0 62.046,6.727 89.225,19.461 7.881,3.693 15.423,7.928 22.588,12.665 36.288,-11.503 78.502,-8.933 112.616,7.11 40.319,18.929 65.372,54.058 65.372,91.718 C 20.924,-36.784 13.711,-17.126 0,0"
         style="fill:#d0ecf4;fill-opacity:1;fill-rule:nonzero;stroke:none"
         transform="matrix(1.3333333,0,0,-1.3333333,1688.3867,979.11147)"
         clip-path="url(#clipPath24)" />
      <path
         id="path25"
         d="m 0,0 c 5.501,10.351 8.404,21.538 8.404,32.893 0,29.309 -19.504,56.737 -50.958,71.549 -24.86,11.66 -55.403,14.201 -82.546,7.041 -33.397,36.892 -87.051,59.288 -143.777,59.288 -31.223,0 -62.058,-6.776 -89.237,-19.51 -18.217,-8.578 -34.211,-19.539 -47.68,-32.657 -20.159,-1.005 -39.942,-5.811 -57.539,-14.084 -40.332,-18.967 -65.374,-54.126 -65.374,-91.747 0,-37.67 25.042,-72.789 65.374,-91.718 7.638,-3.614 15.884,-6.578 24.665,-8.883 23.439,-59.671 91.702,-100.562 169.791,-100.562 31.211,0 62.046,6.727 89.225,19.461 7.881,3.693 15.423,7.928 22.588,12.665 36.288,-11.503 78.502,-8.933 112.616,7.11 40.319,18.929 65.372,54.058 65.372,91.718 C 20.924,-36.784 13.711,-17.126 0,0"
         style="fill:#fafcf8;fill-opacity:1;fill-rule:nonzero;stroke:none"
         transform="matrix(1.3333333,0,0,-1.3333333,1688.3867,953.67933)"
         clip-path="url(#clipPath26)" />
    </g>
  </g>
</svg>
