<?xml version="1.0" encoding="UTF-8" standalone="no"?>
<svg
   width="3708"
   height="1266"
   viewBox="0 633 3708 1266"
   xml:space="preserve"
   version="1.1"
   id="svg140"
   sodipodi:docname="FlappingBird.svg"
   inkscape:version="1.4.2 (f4327f4, 2025-05-13)"
   inkscape:export-filename="E:\dev\XNA\FlappingBird\Content\FlappingBird.tiff"
   inkscape:export-xdpi="26.602064"
   inkscape:export-ydpi="26.602064"
   xmlns:inkscape="http://www.inkscape.org/namespaces/inkscape"
   xmlns:sodipodi="http://sodipodi.sourceforge.net/DTD/sodipodi-0.dtd"
   xmlns="http://www.w3.org/2000/svg"
   xmlns:svg="http://www.w3.org/2000/svg"><sodipodi:namedview
   id="namedview140"
   pagecolor="#ffffff"
   bordercolor="#000000"
   borderopacity="0.25"
   inkscape:showpageshadow="2"
   inkscape:pageopacity="0.0"
   inkscape:pagecheckerboard="0"
   inkscape:deskcolor="#d1d1d1"
   showgrid="true"
   showguides="true"
   inkscape:zoom="0.25343578"
   inkscape:cx="-2318.1415"
   inkscape:cy="649.07961"
   inkscape:window-width="1138"
   inkscape:window-height="1240"
   inkscape:window-x="1398"
   inkscape:window-y="736"
   inkscape:window-maximized="0"
   inkscape:current-layer="svg140"><inkscape:grid
     id="grid140"
     units="px"
     originx="0"
     originy="0"
     spacingx="1"
     spacingy="1"
     empcolor="#0099e5"
     empopacity="0.30196078"
     color="#0099e5"
     opacity="0.14901961"
     empspacing="5"
     enabled="true"
     visible="true" /><sodipodi:guide
     position="0,633"
     orientation="0,1"
     id="guide141"
     inkscape:locked="false"
     inkscape:label=""
     inkscape:color="rgb(0,134,229)" /></sodipodi:namedview>
     
  <desc
   id="desc1">
    Flying Bird Animation
    
    From 8 frame uploads by Firkin https://openclipart.org/user-detail/Firkin 
      https://openclipart.org/detail/239736/flying-bird-22-frame-1
      https://openclipart.org/detail/239737/flying-bird-22-frame-2
      https://openclipart.org/detail/239738/flying-bird-22-frame-3
      https://openclipart.org/detail/239739/flying-bird-22-frame-4
      https://openclipart.org/detail/239740/flying-bird-22-frame-5
      https://openclipart.org/detail/239741/flying-bird-22-frame-6
      https://openclipart.org/detail/239742/flying-bird-22-frame-7
      https://openclipart.org/detail/239743/flying-bird-22-frame-8
      
    Appears original work from:
      http://opengameart.org/content/game-character-blue-flappy-bird-sprite-sheets
    
    Animation by
    Jay Nick
    STEAMcoded.org
  </desc>

  <defs
   id="defs1">
    <clipPath
   id="cp1"
   viewBox="0 0 3708 1266">
      <rect
   id="cp"
   x="0"
   width="3708"
   height="1266"
   y="0" />
    </clipPath>
  </defs>

  <g
   id="sprites"
   clip-path="url(#cp1)"
   transform="translate(0,633)">
     
  <g
   id="f1">
    <path
   fill="#000000"
   opacity="1"
   d="m 592.43,5.98 c 22.68,-4.67 46.21,14.55 47.5,37.49 1.63,15 -3.2,29.82 -10.85,42.55 31.68,11.38 55.71,39.93 63.36,72.47 5.84,17.81 -0.21,37.71 3.65,55.24 75.17,40.07 151.56,78.26 226.22,119.13 -75.77,0.34 -151.53,0.02 -227.3,0.15 -0.03,16.33 -0.06,32.65 0,48.98 46.1,0.2 92.22,-0.34 138.32,0.25 -47.38,26.07 -96.34,50.36 -144.14,75.99 -12.55,36.44 -47.33,63.53 -85.48,67.66 -72.13,0.44 -144.28,-0.31 -216.41,0.35 -7.35,0.38 -14.7,0.79 -22.04,1 -24.75,-0.4 -49.5,-0.25 -74.24,-0.19 -7.92,-0.09 -15.82,-0.04 -23.73,-0.23 -51.14,-0.56 -97.31,-42.99 -101.17,-94.18 -0.39,-35.26 0.09,-70.53 -0.17,-105.79 C 137.94,350.88 98.46,371.07 61.4,356.57 47.13,349.48 29.59,336.29 33.84,318.3 48.69,299.07 76.22,299.84 98.16,295.3 73.15,288.16 48.37,275.67 32.37,254.62 18.16,235.41 11.36,206.94 24.73,185.77 c 11.83,-11.17 30.42,-3.46 42.99,2.53 36.11,18.69 68.04,44.53 97.88,71.92 0.9,-25.09 0.21,-50.2 0.34,-75.31 -1.98,-29.93 12.6,-59.04 33.88,-79.43 -1.78,-26.1 7.66,-56.38 29.85,-71.6 9.45,17.58 15.84,50.5 41.96,45.04 5.05,-16.77 12.38,-35.7 28.04,-45.04 5.93,16.3 14.85,31.41 25.67,44.93 75.61,0.37 151.22,0.21 226.82,0.08 -18.8,-8.79 -37.91,-17.68 -53.92,-31.11 -6,-4.62 -8.7,-15.39 -1,-19.61 C 528.2,9.65 568.82,23.07 592,48.08 587.94,35.3 578.55,15.1 592.43,5.98 M 293.98,72.04 c -0.65,2.31 -1.29,4.61 -1.94,6.92 h 4.92 c -0.65,-2.31 -1.3,-4.61 -1.94,-6.92 h -1.04 m -69.61,0.42 c -11.26,27.32 0.6,56.75 14.61,80.56 21.49,34.55 52.03,62.32 84.04,86.96 -43.38,-11.41 -82.27,-39.13 -107.33,-76.31 -10.07,8.82 -11.04,24.15 -4.73,35.41 12.4,22.64 35.99,35.52 57,48.94 26.82,14.72 54.6,27.78 83.29,38.38 -43.02,-0.41 -86.62,-13.74 -122.49,-38.02 -2.69,27.85 11.83,56 36.45,69.4 30.35,15.88 65.51,20.62 99.37,20.44 -37.49,6.02 -79.78,5.04 -115.12,-11.69 -36.75,-18.13 -45.09,-63.29 -40.71,-100.26 -5.93,-5.85 -11.22,-12.31 -15.16,-19.66 -1.38,52.71 -0.26,105.61 -0.52,158.39 -0.08,21.55 -0.27,43.11 0.05,64.66 2.31,34.17 30.76,63.67 64.23,69.19 88.58,0.32 177.18,0.12 265.76,0.09 25.22,0.1 50.44,0.1 75.67,0.06 38.93,-2.28 72.22,-39.88 69.29,-78.91 -0.19,-78.66 0.03,-157.32 -0.11,-235.98 2.41,-40.19 -32.37,-76.47 -71.97,-78.19 -105.06,0.27 -210.12,-0.15 -315.17,0.21 12.43,13.28 26.74,24.56 39.93,37.05 l 0.94,-0.02 -0.94,0.02 C 376.16,189.47 439.5,247.78 437.34,326.12 432.85,289 411.51,256.31 386.67,229.33 347.6,187.57 299.07,156.48 257.27,117.73 243.72,104.79 231.33,90.06 224.37,72.46 m -18.18,66.53 c -2.82,3.2 -4.42,7.22 -6.28,11.01 2.86,-2.72 11.45,-7.33 6.28,-11.01 m 488.92,94.95 c -0.06,4.29 -0.09,8.59 -0.07,12.9 -0.15,8 -0.09,16.01 0.08,24.02 -0.33,14.71 -0.07,29.42 -0.11,44.13 51.41,-0.44 102.88,0.92 154.25,-0.67 -51.62,-26.35 -102.7,-53.69 -154.15,-80.38 M 695,398.02 c -0.01,1.66 -0.01,3.33 -0.01,5.01 0.03,3.02 -0.02,5.99 0.06,9.05 -0.1,8.42 -0.38,16.83 -0.77,25.25 24.8,-12.93 49.51,-25.99 74.33,-38.86 -24.5,-1.19 -49.08,-0.13 -73.61,-0.45 z"
   id="path1" />
    <path
   fill="#00adee"
   opacity="1"
   d="m 293.98,72.04 h 1.04 c 0.64,2.31 1.29,4.61 1.94,6.92 h -4.92 c 0.65,-2.31 1.29,-4.61 1.94,-6.92 z"
   id="path2" />
    <path
   fill="#00adee"
   opacity="1"
   d="m 224.37,72.46 c 6.96,17.6 19.35,32.33 32.9,45.27 41.8,38.75 90.33,69.84 129.4,111.6 24.84,26.98 46.18,59.67 50.67,96.79 2.16,-78.34 -61.18,-136.65 -116.59,-182.94 l 0.94,-0.02 c 91.7,-0.31 183.42,-0.17 275.13,-0.09 28.88,0.22 55.19,17.73 71.14,41.04 0.14,78.66 -0.08,157.32 0.11,235.98 2.93,39.03 -30.36,76.63 -69.29,78.91 -25.23,0.04 -50.45,0.04 -75.67,-0.06 -22.57,-37.43 -60.21,-62.07 -98.12,-81.94 -71.8,-35.1 -152.1,-52.57 -231.92,-52 0.26,-52.78 -0.86,-105.68 0.52,-158.39 3.94,7.35 9.23,13.81 15.16,19.66 -4.38,36.97 3.96,82.13 40.71,100.26 35.34,16.73 77.63,17.71 115.12,11.69 -33.86,0.18 -69.02,-4.56 -99.37,-20.44 -24.62,-13.4 -39.14,-41.55 -36.45,-69.4 35.87,24.28 79.47,37.61 122.49,38.02 -28.69,-10.6 -56.47,-23.66 -83.29,-38.38 -21.01,-13.42 -44.6,-26.3 -57,-48.94 -6.31,-11.26 -5.34,-26.59 4.73,-35.41 25.06,37.18 63.95,64.9 107.33,76.31 -32.01,-24.64 -62.55,-52.41 -84.04,-86.96 -14.01,-23.81 -25.87,-53.24 -14.61,-80.56 m 279.66,184.57 c -33.26,23.7 -41.83,73.89 -22.03,108.96 15.21,28.45 47.4,47.42 79.84,45.1 41.77,0 80.44,-35.57 82.88,-77.38 14.08,-46.46 -20.81,-98.64 -68.81,-103.77 -26.61,-2.42 -53.91,7.05 -71.88,27.09 m -33.99,141.46 c -10.82,1.26 -13.37,15.23 -5.77,22.21 14.83,16.16 39.09,26.33 60.89,20.63 9.92,-2.43 9.59,-15.72 3.5,-22 C 514,403.69 491.39,395.27 470.04,398.49 Z"
   id="path3" />
    <path
   fill="#84d9f4"
   opacity="1"
   d="m 280.82,106.13 c 105.05,-0.36 210.11,0.06 315.17,-0.21 39.6,1.72 74.38,38 71.97,78.19 -15.95,-23.31 -42.26,-40.82 -71.14,-41.04 -91.71,-0.08 -183.43,-0.22 -275.13,0.09 l -0.94,0.02 c -13.19,-12.49 -27.5,-23.77 -39.93,-37.05 z"
   id="path4" />
    <path
   fill="#5890a2"
   opacity="1"
   d="m 206.19,138.99 c 5.17,3.68 -3.42,8.29 -6.28,11.01 1.86,-3.79 3.46,-7.81 6.28,-11.01 z"
   id="path5" />
    <path
   fill="#000000"
   opacity="1"
   d="m 504.03,257.03 c 17.97,-20.04 45.27,-29.51 71.88,-27.09 48,5.13 82.89,57.31 68.81,103.77 -8.2,26.02 -28.68,47.9 -54.87,56.17 -31.86,9.91 -69.1,-1.78 -89.18,-28.54 -23.64,-30.03 -22.43,-75.84 3.36,-104.31 m 25.37,-1.98 -0.18,0.67 c -25.66,16.06 -38.12,50.95 -26.09,79.23 13.75,40.14 67.69,56.67 101.26,30.62 l -0.93,-0.11 c 25.02,-15.16 35.76,-49.79 24.9,-76.91 -13.04,-39.12 -64.83,-56.65 -98.96,-33.5 z"
   id="path6" />
    <path
   fill="#f6921e"
   opacity="1"
   d="m 695.11,233.94 c 51.45,26.69 102.53,54.03 154.15,80.38 -51.37,1.59 -102.84,0.23 -154.25,0.67 0.04,-14.71 -0.22,-29.42 0.11,-44.13 38.29,9.57 75.86,21.8 113.94,32.12 -37.95,-18.81 -75.82,-37.81 -114.02,-56.14 -0.02,-4.31 0.01,-8.61 0.07,-12.9 z"
   id="path7" />
    <path
   fill="#ffffff"
   opacity="1"
   d="m 529.4,255.05 c 34.13,-23.15 85.92,-5.62 98.96,33.5 10.86,27.12 0.12,61.75 -24.9,76.91 -39.5,4.48 -79.15,-26.88 -81.39,-66.9 -2.15,-14.92 2.53,-29.01 7.15,-42.84 l 0.18,-0.67 m 33.59,75.88 c 13.52,21.84 51.77,4.28 42.87,-20.39 -2.78,11.34 -20.57,11.34 -22.6,-0.13 -2.61,-7.6 4.57,-12.2 10.08,-15.52 -21.82,-10.96 -45.1,16.77 -30.35,36.04 z"
   id="path8" />
    <path
   fill="#ffffff"
   opacity="1"
   d="m 695.04,246.84 c 38.2,18.33 76.07,37.33 114.02,56.14 -38.08,-10.32 -75.65,-22.55 -113.94,-32.12 -0.17,-8.01 -0.23,-16.02 -0.08,-24.02 z"
   id="path9" />
    <path
   fill="#d0d2d3"
   opacity="1"
   d="m 503.13,334.95 c -12.03,-28.28 0.43,-63.17 26.09,-79.23 -4.62,13.83 -9.3,27.92 -7.15,42.84 2.24,40.02 41.89,71.38 81.39,66.9 l 0.93,0.11 c -33.57,26.05 -87.51,9.52 -101.26,-30.62 z"
   id="path10" />
    <path
   fill="#0594c1"
   opacity="1"
   d="m 482,365.99 c -19.8,-35.07 -11.23,-85.26 22.03,-108.96 -25.79,28.47 -27,74.28 -3.36,104.31 20.08,26.76 57.32,38.45 89.18,28.54 26.19,-8.27 46.67,-30.15 54.87,-56.17 -2.44,41.81 -41.11,77.38 -82.88,77.38 -32.44,2.32 -64.63,-16.65 -79.84,-45.1 z"
   id="path11" />
    <path
   fill="#000000"
   opacity="1"
   d="m 562.99,330.93 c -14.75,-19.27 8.53,-47 30.35,-36.04 -5.51,3.32 -12.69,7.92 -10.08,15.52 2.03,11.47 19.82,11.47 22.6,0.13 8.9,24.67 -29.35,42.23 -42.87,20.39 z"
   id="path12" />
    <path
   fill="#ffffff"
   opacity="1"
   d="m 193.07,365 c 79.82,-0.57 160.12,16.9 231.92,52 37.91,19.87 75.55,44.51 98.12,81.94 -88.58,0.03 -177.18,0.23 -265.76,-0.09 -33.47,-5.52 -61.92,-35.02 -64.23,-69.19 -0.32,-21.55 -0.13,-43.11 -0.05,-64.66 z"
   id="path13" />
    <path
   fill="#000000"
   opacity="1"
   d="m 470.04,398.49 c 21.35,-3.22 43.96,5.2 58.62,20.84 6.09,6.28 6.42,19.57 -3.5,22 -21.8,5.7 -46.06,-4.47 -60.89,-20.63 -7.6,-6.98 -5.05,-20.95 5.77,-22.21 z"
   id="path14" />
    <path
   fill="#f6921e"
   opacity="1"
   d="m 695,398.02 c 24.53,0.32 49.11,-0.74 73.61,0.45 -24.82,12.87 -49.53,25.93 -74.33,38.86 0.39,-8.42 0.67,-16.83 0.77,-25.25 16.91,-2.06 33.53,-5.83 50.3,-8.74 -16.78,-0.62 -33.57,-0.32 -50.36,-0.31 0,-1.68 0,-3.35 0.01,-5.01 z"
   id="path15" />
    <path
   fill="#ffffff"
   opacity="1"
   d="m 694.99,403.03 c 16.79,-0.01 33.58,-0.31 50.36,0.31 -16.77,2.91 -33.39,6.68 -50.3,8.74 -0.08,-3.06 -0.03,-6.03 -0.06,-9.05 z"
   id="path16" />
    <path
   fill="#f6921e"
   opacity="1"
   d="m 365.26,527.24 c 7.34,-0.21 14.69,-0.62 22.04,-1 -4.21,16.52 -25.19,28.12 -19.01,45.65 3.95,18.61 -7.67,35.99 -21.31,47.41 -3.97,-4.9 -7.33,-10.26 -11.04,-15.33 8.13,-7.87 15.85,-17.79 14,-29.96 -13.29,7.07 -26.53,15.28 -41.55,18.02 -1.83,-5.81 -3.67,-11.67 -4.44,-17.73 25.17,-7.47 50.28,-22.16 61.31,-47.06 z"
   id="path17" />
    <path
   fill="#f6921e"
   opacity="1"
   d="m 266.33,526.79 0.96,0.03 c 7.91,0.19 15.81,0.14 23.73,0.23 -5.98,12.59 -17.06,21.96 -25.79,32.28 5.73,23.87 -6.59,51.45 -29.69,60.72 -2.54,-6.08 -5.93,-11.74 -8.51,-17.79 9.93,-6.79 19.79,-17.01 17.98,-30.19 -15.14,6.85 -31.09,12.5 -47.78,13.82 -0.26,-6.94 -1.12,-13.8 -2.06,-20.67 27.37,-2.41 54.93,-15.79 71.16,-38.43 z"
   id="path18" />
  </g>
  <g
   id="f2"
   transform="translate(927)">
    <path
   fill="#000000"
   opacity="1"
   d="m 590.75,6.46 c 23.01,-6.25 47.93,13.53 49.18,37.02 1.61,14.99 -3.19,29.82 -10.85,42.53 40.86,14.6 68.67,57.91 65.98,101.01 1.14,8.56 -2.46,18.86 1.05,26.67 75.13,40.14 151.52,78.3 226.21,119.14 -75.77,0.4 -151.54,0.04 -227.31,0.18 -0.03,16.32 -0.05,32.65 0,48.98 46.12,0.24 92.25,-0.41 138.36,0.3 -47.51,25.99 -96.36,50.31 -144.16,75.97 -12.62,36.4 -47.34,63.52 -85.51,67.62 -72.13,0.47 -144.28,-0.31 -216.4,0.37 -7.36,0.38 -14.7,0.79 -22.05,1 -24.74,-0.4 -49.48,-0.29 -74.21,-0.17 -7.93,-0.1 -15.85,-0.05 -23.76,-0.26 -51.17,-0.64 -97.31,-42.97 -101.15,-94.2 -0.44,-35.25 0.12,-70.52 -0.21,-105.77 -27.59,23.72 -65.58,43.14 -102.47,30.68 C 48.38,350.49 29.63,337.2 33.83,318.32 48.69,298.97 76.33,299.97 98.27,295.16 75.46,289.17 53.69,277.84 37.25,260.75 19.67,241.14 10.02,209.39 24.73,185.78 c 10.43,-10.19 27.26,-4.62 38.88,0.63 38.17,18.22 70.72,46.02 102.32,73.7 0.34,-29.94 -0.27,-59.88 0.22,-89.82 5.43,-47.46 46.52,-87.73 94.32,-91.05 97.22,-0.65 194.46,0.08 291.68,-0.35 -18.79,-8.79 -37.92,-17.67 -53.9,-31.12 -7.14,-5.12 -8.22,-17.3 0.84,-20.74 C 530.11,10.28 569.2,23.54 592,48.1 587.58,35.04 580.35,17.92 590.75,6.46 M 193.06,184.08 c -0.19,10.85 -0.14,21.72 0.16,32.57 62.6,29.74 135.8,24.43 198.04,55.1 22.44,10.16 41.06,29.97 46.74,54.26 -23.28,-35.52 -64.41,-52.74 -105.34,-56.68 -39.77,-4.36 -79.58,-10.49 -117.52,-23.42 7.34,14.44 23.01,21.26 36.75,28.2 27.7,11.54 56.96,18.97 86.58,23.51 -44.34,2.6 -91.7,-3.65 -129.52,-28.58 6.66,12.42 20.23,18.72 32.32,24.7 35.64,14.36 74.4,18.71 112.42,21.37 l 0.15,0.69 c -44.78,4.79 -92.2,4.34 -133.87,-14.81 17.19,21.72 46.57,25.36 72.07,30 25.45,1.39 50.77,4.84 76.27,5.45 -32,6.35 -65,7.63 -97.41,3.67 -22.49,-3.83 -47.34,-8.87 -62.81,-27.2 -8.01,-7.69 -5.63,-20.83 -14.71,-27.6 -0.95,26.54 -0.16,53.13 -0.31,79.69 -0.06,21.54 -0.3,43.1 0.06,64.65 2.37,34.12 30.74,63.74 64.24,69.19 88.56,0.33 177.14,0.14 265.71,0.09 25.87,0.02 51.75,0.32 77.62,-0.1 38.13,-3.35 70.24,-40.37 67.37,-78.74 -0.22,-78.67 0.07,-157.35 -0.14,-236.02 2.41,-39.89 -31.81,-75.84 -71.03,-78.12 -109.93,0.08 -219.86,0.07 -329.79,0.01 -40.35,0.29 -76.31,37.68 -74.05,78.12 m 502.07,49.84 c -0.11,4.3 -0.06,8.61 -0.08,12.93 -0.14,8 -0.08,16 0.08,24.01 -0.32,14.71 -0.09,29.42 -0.12,44.14 51.4,-0.45 102.87,0.91 154.24,-0.68 -51.59,-26.39 -102.73,-53.63 -154.12,-80.4 M 695,398.01 c 0,1.67 -0.01,3.34 -0.01,5.01 0.03,3.03 -0.01,6.01 0.07,9.06 -0.11,8.42 -0.4,16.84 -0.75,25.26 24.76,-12.98 49.51,-25.98 74.31,-38.89 -24.52,-1.14 -49.09,-0.13 -73.62,-0.44 z"
   id="path19" />
    <path
   fill="#84d9f4"
   opacity="1"
   d="m 193.06,184.08 c -2.26,-40.44 33.7,-77.83 74.05,-78.12 109.93,0.06 219.86,0.07 329.79,-0.01 39.22,2.28 73.44,38.23 71.03,78.12 -16.56,-24.58 -44.87,-42.08 -75.09,-40.98 -108.29,-0.28 -216.58,0.1 -324.87,-0.19 -30.16,-1.1 -58.24,16.84 -74.91,41.18 z"
   id="path20" />
    <path
   fill="#00adee"
   opacity="1"
   d="m 193.06,184.08 c 16.67,-24.34 44.75,-42.28 74.91,-41.18 108.29,0.29 216.58,-0.09 324.87,0.19 30.22,-1.1 58.53,16.4 75.09,40.98 0.21,78.67 -0.08,157.35 0.14,236.02 2.87,38.37 -29.24,75.39 -67.37,78.74 -25.87,0.42 -51.75,0.12 -77.62,0.1 C 505.58,469.71 478.21,447.94 449.4,430.61 372.34,385.4 281.96,364.8 193.07,365 c 0.15,-26.56 -0.64,-53.15 0.31,-79.69 9.08,6.77 6.7,19.91 14.71,27.6 15.47,18.33 40.32,23.37 62.81,27.2 32.41,3.96 65.41,2.68 97.41,-3.67 -25.5,-0.61 -50.82,-4.06 -76.27,-5.45 -25.5,-4.64 -54.88,-8.28 -72.07,-30 41.67,19.15 89.09,19.6 133.87,14.81 l -0.15,-0.69 c -38.02,-2.66 -76.78,-7.01 -112.42,-21.37 -12.09,-5.98 -25.66,-12.28 -32.32,-24.7 37.82,24.93 85.18,31.18 129.52,28.58 -29.62,-4.54 -58.88,-11.97 -86.58,-23.51 -13.74,-6.94 -29.41,-13.76 -36.75,-28.2 37.94,12.93 77.75,19.06 117.52,23.42 40.93,3.94 82.06,21.16 105.34,56.68 -5.68,-24.29 -24.3,-44.1 -46.74,-54.26 -62.24,-30.67 -135.44,-25.36 -198.04,-55.1 -0.3,-10.85 -0.35,-21.72 -0.16,-32.57 m 310.96,72.95 c -33.25,23.73 -41.82,73.89 -22.02,108.96 15.21,28.45 47.39,47.42 79.84,45.11 41.77,-0.01 80.45,-35.57 82.87,-77.38 12.61,-42.43 -14.6,-89.95 -56.99,-101.45 -29.7,-7.66 -63.11,1.79 -83.7,24.76 M 470.07,398.5 c -10.85,1.19 -13.38,15.22 -5.81,22.19 14.83,16.18 39.08,26.31 60.89,20.65 9.92,-2.43 9.59,-15.71 3.51,-22 -14.65,-15.64 -37.25,-24.08 -58.59,-20.84 z"
   id="path21" />
    <path
   fill="#000000"
   opacity="1"
   d="m 504.02,257.03 c 20.59,-22.97 54,-32.42 83.7,-24.76 42.39,11.5 69.6,59.02 56.99,101.45 -12.58,44.38 -64.82,73.19 -108.5,53.99 -52.48,-17.53 -69.65,-90.82 -32.19,-130.68 m 25.37,-1.99 -0.18,0.67 c -40.61,23.7 -39.85,89 0.98,112.1 21.79,14.72 53.07,13.96 73.61,-2.52 24.75,-15.28 35.37,-49.73 24.56,-76.75 -13.05,-39.11 -64.82,-56.62 -98.97,-33.5 z"
   id="path22" />
    <path
   fill="#f6921e"
   opacity="1"
   d="m 695.13,233.92 c 51.39,26.77 102.53,54.01 154.12,80.4 -51.37,1.59 -102.84,0.23 -154.24,0.68 0.03,-14.72 -0.2,-29.43 0.12,-44.14 38.28,9.56 75.85,21.82 113.94,32.11 -37.97,-18.78 -75.81,-37.81 -114.02,-56.12 0.02,-4.32 -0.03,-8.63 0.08,-12.93 z"
   id="path23" />
    <path
   fill="#ffffff"
   opacity="1"
   d="m 529.39,255.04 c 34.15,-23.12 85.92,-5.61 98.97,33.5 10.81,27.02 0.19,61.47 -24.56,76.75 -39.61,4.99 -79.49,-26.66 -81.72,-66.74 -2.12,-14.9 2.5,-29.02 7.13,-42.84 l 0.18,-0.67 m 33.59,75.88 c 13.56,21.81 51.66,4.37 42.95,-20.38 -2.89,11.28 -20.61,11.38 -22.67,-0.13 -2.61,-7.61 4.6,-12.16 10.06,-15.55 -21.84,-10.87 -45.03,16.76 -30.34,36.06 z"
   id="path24" />
    <path
   fill="#ffffff"
   opacity="1"
   d="m 695.05,246.85 c 38.21,18.31 76.05,37.34 114.02,56.12 -38.09,-10.29 -75.66,-22.55 -113.94,-32.11 -0.16,-8.01 -0.22,-16.01 -0.08,-24.01 z"
   id="path25" />
    <path
   fill="#d0d2d3"
   opacity="1"
   d="m 530.19,367.81 c -40.83,-23.1 -41.59,-88.4 -0.98,-112.1 -4.63,13.82 -9.25,27.94 -7.13,42.84 2.23,40.08 42.11,71.73 81.72,66.74 -20.54,16.48 -51.82,17.24 -73.61,2.52 z"
   id="path26" />
    <path
   fill="#0594c1"
   opacity="1"
   d="m 482,365.99 c -19.8,-35.07 -11.23,-85.23 22.02,-108.96 -37.46,39.86 -20.29,113.15 32.19,130.68 43.68,19.2 95.92,-9.61 108.5,-53.99 -2.42,41.81 -41.1,77.37 -82.87,77.38 -32.45,2.31 -64.63,-16.66 -79.84,-45.11 z"
   id="path27" />
    <path
   fill="#000000"
   opacity="1"
   d="m 562.98,330.92 c -14.69,-19.3 8.5,-46.93 30.34,-36.06 -5.46,3.39 -12.67,7.94 -10.06,15.55 2.06,11.51 19.78,11.41 22.67,0.13 8.71,24.75 -29.39,42.19 -42.95,20.38 z"
   id="path28" />
    <path
   fill="#ffffff"
   opacity="1"
   d="m 193.07,365 c 88.89,-0.2 179.27,20.4 256.33,65.61 28.81,17.33 56.18,39.1 73.68,68.32 -88.57,0.05 -177.15,0.24 -265.71,-0.09 -33.5,-5.45 -61.87,-35.07 -64.24,-69.19 -0.36,-21.55 -0.12,-43.11 -0.06,-64.65 z"
   id="path29" />
    <path
   fill="#000000"
   opacity="1"
   d="m 470.07,398.5 c 21.34,-3.24 43.94,5.2 58.59,20.84 6.08,6.29 6.41,19.57 -3.51,22 -21.81,5.66 -46.06,-4.47 -60.89,-20.65 -7.57,-6.97 -5.04,-21 5.81,-22.19 z"
   id="path30" />
    <path
   fill="#f6921e"
   opacity="1"
   d="m 695,398.01 c 24.53,0.31 49.1,-0.7 73.62,0.44 -24.8,12.91 -49.55,25.91 -74.31,38.89 0.35,-8.42 0.64,-16.84 0.75,-25.26 16.9,-2.07 33.51,-5.81 50.26,-8.75 -16.78,-0.55 -33.56,-0.34 -50.33,-0.31 0,-1.67 0.01,-3.34 0.01,-5.01 z"
   id="path31" />
    <path
   fill="#ffffff"
   opacity="1"
   d="m 694.99,403.02 c 16.77,-0.03 33.55,-0.24 50.33,0.31 -16.75,2.94 -33.36,6.68 -50.26,8.75 -0.08,-3.05 -0.04,-6.03 -0.07,-9.06 z"
   id="path32" />
    <path
   fill="#f6921e"
   opacity="1"
   d="m 365.25,527.25 c 7.35,-0.21 14.69,-0.62 22.05,-1 -4.26,16.5 -25.12,28.1 -19.04,45.65 4.01,18.62 -7.66,35.96 -21.28,47.41 -3.94,-4.92 -7.35,-10.25 -11.04,-15.34 8.14,-7.87 15.83,-17.78 13.99,-29.96 -13.28,7.1 -26.54,15.24 -41.54,18.04 -1.83,-5.82 -3.62,-11.69 -4.44,-17.75 25.16,-7.47 50.27,-22.15 61.3,-47.05 z"
   id="path33" />
    <path
   fill="#f6921e"
   opacity="1"
   d="m 266.3,526.79 0.98,0.03 c 7.91,0.21 15.83,0.16 23.76,0.26 -6.48,12.16 -16.15,22.38 -26.08,31.81 6.4,24.02 -6.32,51.74 -29.39,61.21 -2.6,-6.07 -5.9,-11.79 -8.54,-17.84 9.94,-6.79 19.78,-17.01 17.98,-30.2 -15.14,6.89 -31.09,12.47 -47.77,13.84 -0.37,-6.93 -1.05,-13.82 -2.05,-20.68 27.44,-2.33 54.72,-15.93 71.11,-38.43 z"
   id="path34" />
  </g>
  <g
   id="f3"
   transform="translate(1854)">
    <path
   fill="#000000"
   opacity="1"
   d="m 589.97,6.76 c 21.56,-6.65 45.54,10.48 49.4,32.2 2.93,16.37 -1.77,33.08 -10.29,47.05 40.86,14.61 68.67,57.91 65.98,101.02 1.14,8.54 -2.48,18.86 1.05,26.64 75.14,40.15 151.49,78.38 226.25,119.12 -75.78,0.5 -151.57,0.05 -227.35,0.21 -0.04,16.33 -0.04,32.66 0,48.99 46.13,0.24 92.28,-0.41 138.41,0.3 -47.52,25.94 -96.39,50.31 -144.2,75.97 -12.64,36.41 -47.35,63.53 -85.54,67.62 -55.47,0.46 -110.96,-0.28 -166.43,0.33 -11.86,21.87 -22.77,45.3 -21.64,70.88 -21.31,-5.5 -35.06,-24.81 -44.68,-43.4 6.56,-7.94 11.65,-16.92 15.16,-26.6 -6.32,-0.01 -12.62,-0.03 -18.93,-0.04 -8.1,14.47 -15.48,29.52 -18.99,45.85 -1.98,7.66 -2.55,15.57 -3.53,23.4 -0.33,0.23 -1,0.68 -1.33,0.91 -6.43,-2.65 -12.17,-6.78 -17.95,-10.59 -4.9,-4.47 -9.4,-9.36 -13.36,-14.67 -9.54,-13.12 -16.17,-29.15 -14.95,-45.63 -1.62,0.11 -4.86,0.35 -6.47,0.47 -7.76,0.14 -15.52,0.22 -23.27,0.06 -51.17,-0.68 -97.35,-42.98 -101.18,-94.24 -0.46,-35.26 0.15,-70.52 -0.22,-105.78 -27.56,23.76 -65.6,43.16 -102.46,30.69 C 48.37,350.51 29.66,337.2 33.82,318.33 48.64,299.04 76.21,299.9 98.13,295.25 73.12,288.2 48.37,275.64 32.38,254.62 18.06,235.29 11.11,206.24 25.2,185.24 c 12.87,-10.76 31.56,-2.25 44.54,4.03 35.43,18.58 66.4,44.68 96.25,70.76 0.21,-29.91 -0.31,-59.82 0.16,-89.73 5.43,-47.45 46.52,-87.78 94.34,-91.04 97.2,-0.71 194.45,0.1 291.67,-0.39 -18.81,-8.74 -37.93,-17.66 -53.91,-31.11 -7.16,-5.09 -8.22,-17.3 0.84,-20.74 31.02,-16.73 70.12,-3.49 92.9,21.09 -4.45,-13 -11.04,-29.11 -2.02,-41.35 m -396.9,177.27 c -0.13,60.32 -0.11,120.65 0,180.97 -0.16,19.96 -0.09,39.92 -0.1,59.89 -0.32,40.72 38.09,77.7 79.01,74.14 -6.11,-14.05 2.2,-29.45 -4.83,-43.15 -3.01,-12.12 -4.3,-26.19 2.6,-37.22 10.48,-19.24 31.73,-27.87 49.48,-38.86 l 0.8,0.21 c 21.63,-12.15 45.22,-23.16 59.81,-44.17 -10.84,36.12 -47.77,53.77 -74.89,76.11 -11.4,9.22 -24.26,21.95 -22.5,37.96 19.34,-25.1 50.13,-38.36 79.58,-47.9 -20.83,17.28 -44.32,32.4 -59.98,54.97 -9.46,13.08 -9.94,32.52 2.27,44.14 8.77,-47.36 52.74,-75.73 92.52,-96.31 -30.07,31.77 -65.33,64.1 -74.34,108.86 -1.26,15.16 -2.08,31.54 5.24,45.4 8.06,-46.66 43.99,-80.87 70.94,-117.39 25.18,-32.42 49.98,-73.12 38.43,-115.97 12.22,30.26 3.61,64.45 -7.22,93.98 -12.81,27.56 -28.78,53.48 -45.26,78.97 46.14,0.75 92.3,0.21 138.46,0.27 24.24,0.12 48.49,0.12 72.74,0.06 40.19,-0.25 75.23,-38.98 72.25,-78.9 -0.23,-78.67 0.05,-157.34 -0.14,-236.02 2.39,-39.9 -31.82,-75.84 -71.05,-78.12 -109.92,0.09 -219.85,0.07 -329.77,0.01 -40.34,0.29 -76.3,37.64 -74.05,78.07 m 502.06,49.86 c -0.03,4.32 -0.06,8.63 -0.08,12.96 -0.15,8 -0.09,16 0.09,24 -0.35,14.71 -0.09,29.43 -0.13,44.15 51.46,-0.23 102.93,0.48 154.38,-0.36 -51.43,-26.9 -102.88,-53.75 -154.26,-80.75 M 695,398.02 c -0.01,1.66 -0.01,3.33 0,5 0.03,3.03 -0.02,6.01 0.07,9.07 -0.13,8.42 -0.46,16.84 -0.73,25.27 24.72,-13.06 49.53,-25.96 74.29,-38.95 -24.53,-1.02 -49.09,-0.14 -73.63,-0.39 M 391.96,527.54 c -0.83,10.93 1.04,21.72 5.83,31.6 1.49,-11.27 5.29,-22.03 10.33,-32.17 -5.4,0.16 -10.78,0.35 -16.16,0.57 z"
   id="path35" />
    <path
   fill="#84d9f4"
   opacity="1"
   d="m 193.07,184.03 c -2.25,-40.43 33.71,-77.78 74.05,-78.07 109.92,0.06 219.85,0.08 329.77,-0.01 39.23,2.28 73.44,38.22 71.05,78.12 -16.54,-24.64 -44.93,-41.92 -75.12,-40.98 -108.25,-0.24 -216.5,0.01 -324.76,-0.12 -30.23,-1.18 -58.26,16.72 -74.99,41.06 z"
   id="path36" />
    <path
   fill="#00adee"
   opacity="1"
   d="m 193.07,184.03 c 16.73,-24.34 44.76,-42.24 74.99,-41.06 108.26,0.13 216.51,-0.12 324.76,0.12 30.19,-0.94 58.58,16.34 75.12,40.98 0.19,78.68 -0.09,157.35 0.14,236.02 2.98,39.92 -32.06,78.65 -72.25,78.9 -24.25,0.06 -48.5,0.06 -72.74,-0.06 -21.56,-35.74 -57,-60.05 -93.2,-79.24 10.83,-29.53 19.44,-63.72 7.22,-93.98 11.55,42.85 -13.25,83.55 -38.43,115.97 -26.95,36.52 -62.88,70.73 -70.94,117.39 -7.32,-13.86 -6.5,-30.24 -5.24,-45.4 9.01,-44.76 44.27,-77.09 74.34,-108.86 -39.78,20.58 -83.75,48.95 -92.52,96.31 -12.21,-11.62 -11.73,-31.06 -2.27,-44.14 15.66,-22.57 39.15,-37.69 59.98,-54.97 -29.45,9.54 -60.24,22.8 -79.58,47.9 -1.76,-16.01 11.1,-28.74 22.5,-37.96 27.12,-22.34 64.05,-39.99 74.89,-76.11 -14.59,21.01 -38.18,32.02 -59.81,44.17 l -0.8,-0.21 c -41.04,-10.81 -83.8,-15.09 -126.16,-14.8 -0.11,-60.32 -0.13,-120.65 0,-180.97 m 310.95,72.99 c -48.81,34.39 -40.44,118.09 13.04,143.93 50.93,30.69 125.01,-7.63 127.64,-67.25 7.29,-29.36 -0.8,-63.04 -24.42,-82.97 -31.75,-31.06 -87.35,-26.26 -116.26,6.29 m -33.77,141.27 c -11.35,0.96 -12.98,14.81 -6.4,21.87 14.59,16.7 39.15,26.63 61.02,21.19 9.93,-1.89 10.01,-15.1 4.25,-21.4 -14.37,-16.36 -37.45,-24.06 -58.87,-21.66 z"
   id="path37" />
    <path
   fill="#000000"
   opacity="1"
   d="m 504.02,257.02 c 28.91,-32.55 84.51,-37.35 116.26,-6.29 23.62,19.93 31.71,53.61 24.42,82.97 -12.59,44.71 -65.46,73.44 -109.22,53.74 -52,-17.96 -68.69,-90.75 -31.46,-130.42 m 25.38,-1.97 -0.19,0.67 c -25.67,16.08 -38.09,50.94 -26.09,79.24 13.45,39.63 67.98,57.32 100.66,30.31 32.24,-19.49 37.75,-68.36 13.31,-96.37 -20.6,-25.5 -60.25,-31.89 -87.69,-13.85 z"
   id="path38" />
    <path
   fill="#f6921e"
   opacity="1"
   d="m 695.13,233.89 c 51.38,27 102.83,53.85 154.26,80.75 -51.45,0.84 -102.92,0.13 -154.38,0.36 0.04,-14.72 -0.22,-29.44 0.13,-44.15 38.27,9.59 75.84,21.83 113.93,32.11 -37.97,-18.76 -75.81,-37.8 -114.02,-56.11 0.02,-4.33 0.05,-8.64 0.08,-12.96 z"
   id="path39" />
    <path
   fill="#ffffff"
   opacity="1"
   d="m 529.4,255.05 c 27.44,-18.04 67.09,-11.65 87.69,13.85 24.44,28.01 18.93,76.88 -13.31,96.37 -32.82,3.67 -66.23,-16.39 -77.52,-47.49 -7.9,-20.15 -4.52,-42.38 2.95,-62.06 l 0.19,-0.67 m 29.51,60.25 c -1.95,14.27 11.43,27.38 25.66,25.56 14.61,-0.64 25.85,-16.47 21.5,-30.36 -3.08,11.65 -21.6,11.28 -22.95,-0.86 -2.64,-7.97 5.74,-10.83 10.06,-15.02 -14.81,-6.24 -34.6,3.76 -34.27,20.68 z"
   id="path40" />
    <path
   fill="#ffffff"
   opacity="1"
   d="m 695.05,246.85 c 38.21,18.31 76.05,37.35 114.02,56.11 -38.09,-10.28 -75.66,-22.52 -113.93,-32.11 -0.18,-8 -0.24,-16 -0.09,-24 z"
   id="path41" />
    <path
   fill="#d0d2d3"
   opacity="1"
   d="m 503.12,334.96 c -12,-28.3 0.42,-63.16 26.09,-79.24 -7.47,19.68 -10.85,41.91 -2.95,62.06 11.29,31.1 44.7,51.16 77.52,47.49 -32.68,27.01 -87.21,9.32 -100.66,-30.31 z"
   id="path42" />
    <path
   fill="#0594c1"
   opacity="1"
   d="m 517.06,400.95 c -53.48,-25.84 -61.85,-109.54 -13.04,-143.93 -37.23,39.67 -20.54,112.46 31.46,130.42 43.76,19.7 96.63,-9.03 109.22,-53.74 -2.63,59.62 -76.71,97.94 -127.64,67.25 z"
   id="path43" />
    <path
   fill="#000000"
   opacity="1"
   d="m 558.91,315.3 c -0.33,-16.92 19.46,-26.92 34.27,-20.68 -4.32,4.19 -12.7,7.05 -10.06,15.02 1.35,12.14 19.87,12.51 22.95,0.86 4.35,13.89 -6.89,29.72 -21.5,30.36 -14.23,1.82 -27.61,-11.29 -25.66,-25.56 z"
   id="path44" />
    <path
   fill="#ffffff"
   opacity="1"
   d="m 193.07,365 c 42.36,-0.29 85.12,3.99 126.16,14.8 -17.75,10.99 -39,19.62 -49.48,38.86 -6.9,11.03 -5.61,25.1 -2.6,37.22 7.03,13.7 -1.28,29.1 4.83,43.15 -40.92,3.56 -79.33,-33.42 -79.01,-74.14 0.01,-19.97 -0.06,-39.93 0.1,-59.89 z"
   id="path45" />
    <path
   fill="#000000"
   opacity="1"
   d="m 470.25,398.29 c 21.42,-2.4 44.5,5.3 58.87,21.66 5.76,6.3 5.68,19.51 -4.25,21.4 -21.87,5.44 -46.43,-4.49 -61.02,-21.19 -6.58,-7.06 -4.95,-20.91 6.4,-21.87 z"
   id="path46" />
    <path
   fill="#f6921e"
   opacity="1"
   d="m 695,398.02 c 24.54,0.25 49.1,-0.63 73.63,0.39 -24.76,12.99 -49.57,25.89 -74.29,38.95 0.27,-8.43 0.6,-16.85 0.73,-25.27 16.89,-2.08 33.51,-5.84 50.27,-8.74 -16.78,-0.57 -33.56,-0.37 -50.34,-0.33 -0.01,-1.67 -0.01,-3.34 0,-5 z"
   id="path47" />
    <path
   fill="#ffffff"
   opacity="1"
   d="m 695,403.02 c 16.78,-0.04 33.56,-0.24 50.34,0.33 -16.76,2.9 -33.38,6.66 -50.27,8.74 -0.09,-3.06 -0.04,-6.04 -0.07,-9.07 z"
   id="path48" />
    <path
   fill="#ffffff"
   opacity="1"
   d="m 384.63,498.66 c 16.48,-25.49 32.45,-51.41 45.26,-78.97 36.2,19.19 71.64,43.5 93.2,79.24 -46.16,-0.06 -92.32,0.48 -138.46,-0.27 z"
   id="path49" />
    <path
   fill="#f6921e"
   opacity="1"
   d="m 266.35,526.83 0.96,0.02 c 7.75,0.16 15.51,0.08 23.27,-0.06 -4.8,13.08 -17.13,22.04 -25.27,32.57 5.56,23.96 -6.68,51.3 -29.74,60.79 -2.66,-6.06 -5.84,-11.85 -8.55,-17.88 9.95,-6.8 19.79,-17.01 17.98,-30.22 -15.11,6.91 -31.05,12.47 -47.72,13.85 -0.96,-6.88 -0.65,-13.86 -2.14,-20.66 27.49,-2.32 54.69,-15.98 71.21,-38.41 z"
   id="path50" />
    <path
   fill="#f6921e"
   opacity="1"
   d="m 367.16,527.05 c 6.31,0.01 12.61,0.03 18.93,0.04 -3.51,9.68 -8.6,18.66 -15.16,26.6 -3.62,3.47 -6.02,8.17 -3.89,13.19 6.86,19.75 -4.73,40.21 -20.03,52.24 -4.45,-4.56 -7.16,-10.49 -11.38,-15.25 2.37,-2.43 4.75,-4.91 7.68,-6.66 0.33,-0.23 1,-0.68 1.33,-0.91 l 0.64,-0.47 c 3.33,-7.17 5.72,-15.16 2.89,-22.93 3.51,-16.33 10.89,-31.38 18.99,-45.85 z"
   id="path51" />
    <path
   fill="#00adee"
   opacity="1"
   d="m 391.96,527.54 c 5.38,-0.22 10.76,-0.41 16.16,-0.57 -5.04,10.14 -8.84,20.9 -10.33,32.17 -4.79,-9.88 -6.66,-20.67 -5.83,-31.6 z"
   id="path52" />
    <path
   fill="#f6921e"
   opacity="1"
   d="m 303.87,574.21 c 2.71,-0.76 5.42,-1.51 8.13,-2.26 3.96,5.31 8.46,10.2 13.36,14.67 -5.56,2.13 -11.02,4.65 -16.97,5.45 -1.92,-5.84 -3.49,-11.8 -4.52,-17.86 z"
   id="path53" />
  </g>
  <g
   id="f4"
   transform="translate(2781)">
    <path
   fill="#000000"
   opacity="1"
   d="m 591.76,6.31 c 22.71,-5.65 46.96,14.07 48.15,37.17 1.63,15 -3.17,29.81 -10.82,42.53 50.78,17.55 74.71,75.87 65.88,126.34 74.71,41.63 152.38,79.05 227.37,120.45 -75.78,0.48 -151.56,0.04 -227.33,0.21 -0.04,16.33 -0.05,32.65 0,48.98 46.12,0.24 92.26,-0.41 138.38,0.3 -47.52,26 -96.39,50.27 -144.15,75.99 -12.7,36.37 -47.36,63.53 -85.56,67.59 -72.12,0.49 -144.26,-0.3 -216.38,0.37 -7.35,0.38 -14.7,0.79 -22.04,1.01 -24.03,-0.38 -48.06,-0.28 -72.09,-0.21 -1.34,8.03 -2.3,16.12 -3.47,24.18 -4.24,-1.22 -8.49,-2.49 -12.51,-4.34 -6.41,-2.99 -12.44,-6.75 -17.93,-11.2 -3.57,-6.46 -8.18,-12.35 -16.28,-12.71 -43.11,-10.31 -75.65,-50.99 -77,-95.1 -0.08,-33.68 0.17,-67.36 -0.06,-101.03 C 138.08,350.81 99.07,370.69 62.07,356.89 47.54,349.82 29.65,336.62 33.83,318.34 48.54,298.91 76.26,299.9 98.26,295.15 54.42,284.94 8.17,247.3 19.33,197.44 c 1.9,-18.72 23.55,-20.2 37.24,-14.01 41.38,17.46 75.8,47.52 109.36,76.68 0.36,-29.93 -0.3,-59.87 0.23,-89.8 5.41,-47.44 46.51,-87.81 94.33,-91.03 97.2,-0.74 194.44,0.06 291.66,-0.39 -18.78,-8.81 -37.94,-17.65 -53.9,-31.14 -7.15,-5.08 -8.21,-17.29 0.83,-20.72 31.03,-16.75 70.12,-3.5 92.91,21.07 C 588.03,35.38 578.9,16.06 591.76,6.31 m -398.68,177.7 c -0.14,60.33 -0.13,120.66 0,180.98 0.12,23.08 -0.76,46.21 0.44,69.26 4.18,28.32 25.53,52.58 52.38,61.88 -12.36,-14.11 -20.13,-33.2 -16.29,-52.15 5.32,-16.45 -6.29,-32.91 -0.14,-49.4 4.7,-13.76 18.43,-21.44 31.44,-25.95 39.27,-11.81 84.03,-8.52 119.1,-32.67 -33.46,33.14 -84.7,31.95 -122.74,57.19 -9.06,5.95 -10.15,16.94 -8.36,26.71 25.5,-28.41 64.72,-38.46 101.27,-42.75 -29.31,13.19 -59.49,26.49 -82.97,49.09 -10.36,10.64 -20.76,25.22 -16.12,41 18.62,-36.61 56.81,-56.52 95.05,-66.06 -26.95,18.52 -55.14,38.05 -72.3,66.65 -9.4,13.66 -10.75,38.15 3.87,46.63 6.18,-46.72 47.21,-77.12 84.29,-100.43 32.66,-20.58 71.17,-46.22 75.56,-88.25 9.29,31.43 -7.97,63.79 -32.43,83.06 -33.77,29.04 -76.38,50.3 -99.36,89.99 72.44,0.44 144.88,0.16 217.32,0.14 27.4,-0.17 54.84,0.74 82.22,-0.44 32.94,-5.89 60.08,-35.36 62.67,-68.69 0.02,-81.91 0.08,-163.82 -0.04,-245.73 2.39,-39.9 -31.82,-75.85 -71.06,-78.11 -109.92,0.07 -219.83,0.06 -329.75,0 -40.34,0.28 -76.3,37.62 -74.05,78.05 m 502.03,49.92 c -0.03,4.3 -0.07,8.6 -0.06,12.91 -0.14,8 -0.08,16.01 0.08,24.01 -0.32,14.72 -0.1,29.43 -0.12,44.15 51.4,-0.46 102.87,0.93 154.24,-0.69 C 797.64,287.95 746.53,260.66 695.11,233.93 M 695,398.02 c -0.01,1.66 -0.01,3.33 -0.01,5.01 0.03,3.02 -0.01,6 0.08,9.05 -0.16,8.43 -0.43,16.85 -0.75,25.27 24.75,-13.01 49.51,-25.98 74.3,-38.91 -24.52,-1.09 -49.08,-0.15 -73.62,-0.42 z"
   id="path54" />
    <path
   fill="#84d9f4"
   opacity="1"
   d="m 193.08,184.01 c -2.25,-40.43 33.71,-77.77 74.05,-78.05 109.92,0.06 219.83,0.07 329.75,0 39.24,2.26 73.45,38.21 71.06,78.11 -16.57,-24.62 -44.89,-42.02 -75.12,-40.98 -108.25,-0.23 -216.5,0.01 -324.75,-0.12 -30.2,-1.2 -58.27,16.73 -74.99,41.04 z"
   id="path55" />
    <path
   fill="#00adee"
   opacity="1"
   d="m 193.08,184.01 c 16.72,-24.31 44.79,-42.24 74.99,-41.04 108.25,0.13 216.5,-0.11 324.75,0.12 30.23,-1.04 58.55,16.36 75.12,40.98 0.12,81.91 0.06,163.82 0.04,245.73 -2.59,33.33 -29.73,62.8 -62.67,68.69 -27.38,1.18 -54.82,0.27 -82.22,0.44 -26.93,-42.83 -71.84,-71.61 -117.96,-90.13 24.46,-19.27 41.72,-51.63 32.43,-83.06 -4.39,42.03 -42.9,67.67 -75.56,88.25 -37.08,23.31 -78.11,53.71 -84.29,100.43 -14.62,-8.48 -13.27,-32.97 -3.87,-46.63 17.16,-28.6 45.35,-48.13 72.3,-66.65 -38.24,9.54 -76.43,29.45 -95.05,66.06 -4.64,-15.78 5.76,-30.36 16.12,-41 23.48,-22.6 53.66,-35.9 82.97,-49.09 -36.55,4.29 -75.77,14.34 -101.27,42.75 -1.79,-9.77 -0.7,-20.76 8.36,-26.71 38.04,-25.24 89.28,-24.05 122.74,-57.19 -35.07,24.15 -79.83,20.86 -119.1,32.67 -22.53,-2.34 -45.14,-4.51 -67.83,-3.64 -0.13,-60.32 -0.14,-120.65 0,-180.98 m 310.94,73.01 c -48.81,34.4 -40.44,118.08 13.03,143.93 50.83,30.74 125,-7.61 127.66,-67.23 12.61,-42.43 -14.61,-89.96 -57,-101.45 -29.7,-7.65 -63.1,1.8 -83.69,24.75 m -33.91,141.49 c -10.9,1.11 -13.4,15.2 -5.86,22.17 14.83,16.2 39.06,26.29 60.89,20.68 9.52,-2.27 9.86,-15.12 3.83,-21.28 -14.13,-16.56 -37.49,-24.38 -58.86,-21.57 z"
   id="path56" />
    <path
   fill="#000000"
   opacity="1"
   d="m 504.02,257.02 c 20.59,-22.95 53.99,-32.4 83.69,-24.75 42.39,11.49 69.61,59.02 57,101.45 -12.63,44.7 -65.45,73.4 -109.23,53.72 -52,-17.97 -68.68,-90.75 -31.46,-130.42 m 25.36,-1.99 -0.18,0.68 c -31.08,18.83 -40.41,64.37 -18.38,93.46 19.17,30.16 65.03,38.98 92.95,16.11 24.8,-15.23 35.37,-49.72 24.61,-76.74 -13.1,-39.11 -64.82,-56.61 -99,-33.51 z"
   id="path57" />
    <path
   fill="#f6921e"
   opacity="1"
   d="m 695.11,233.93 c 51.42,26.73 102.53,54.02 154.14,80.38 -51.37,1.62 -102.84,0.23 -154.24,0.69 0.02,-14.72 -0.2,-29.43 0.12,-44.15 38.28,9.58 75.85,21.83 113.94,32.11 -37.97,-18.78 -75.82,-37.8 -114.02,-56.12 -0.01,-4.31 0.03,-8.61 0.06,-12.91 z"
   id="path58" />
    <path
   fill="#ffffff"
   opacity="1"
   d="m 529.38,255.03 c 34.18,-23.1 85.9,-5.6 99,33.51 10.76,27.02 0.19,61.51 -24.61,76.74 -32.81,3.65 -66.23,-16.4 -77.51,-47.51 -7.89,-20.14 -4.5,-42.37 2.94,-62.06 l 0.18,-0.68 m 33.57,75.88 c 13.58,21.77 51.61,4.46 43.01,-20.34 -2.98,11.22 -20.6,11.36 -22.71,-0.16 -2.61,-7.62 4.66,-12.09 10.04,-15.59 -21.87,-10.74 -44.93,16.75 -30.34,36.09 z"
   id="path59" />
    <path
   fill="#ffffff"
   opacity="1"
   d="m 695.05,246.84 c 38.2,18.32 76.05,37.34 114.02,56.12 -38.09,-10.28 -75.66,-22.53 -113.94,-32.11 -0.16,-8 -0.22,-16.01 -0.08,-24.01 z"
   id="path60" />
    <path
   fill="#d0d2d3"
   opacity="1"
   d="m 510.82,349.17 c -22.03,-29.09 -12.7,-74.63 18.38,-93.46 -7.44,19.69 -10.83,41.92 -2.94,62.06 11.28,31.11 44.7,51.16 77.51,47.51 -27.92,22.87 -73.78,14.05 -92.95,-16.11 z"
   id="path61" />
    <path
   fill="#0594c1"
   opacity="1"
   d="M 517.05,400.95 C 463.58,375.1 455.21,291.42 504.02,257.02 c -37.22,39.67 -20.54,112.45 31.46,130.42 43.78,19.68 96.6,-9.02 109.23,-53.72 -2.66,59.62 -76.83,97.97 -127.66,67.23 z"
   id="path62" />
    <path
   fill="#000000"
   opacity="1"
   d="m 562.95,330.91 c -14.59,-19.34 8.47,-46.83 30.34,-36.09 -5.38,3.5 -12.65,7.97 -10.04,15.59 2.11,11.52 19.73,11.38 22.71,0.16 8.6,24.8 -29.43,42.11 -43.01,20.34 z"
   id="path63" />
    <path
   fill="#ffffff"
   opacity="1"
   d="m 193.08,364.99 c 22.69,-0.87 45.3,1.3 67.83,3.64 -13.01,4.51 -26.74,12.19 -31.44,25.95 -6.15,16.49 5.46,32.95 0.14,49.4 -3.84,18.95 3.93,38.04 16.29,52.15 -26.85,-9.3 -48.2,-33.56 -52.38,-61.88 -1.2,-23.05 -0.32,-46.18 -0.44,-69.26 z"
   id="path64" />
    <path
   fill="#000000"
   opacity="1"
   d="m 470.11,398.51 c 21.37,-2.81 44.73,5.01 58.86,21.57 6.03,6.16 5.69,19.01 -3.83,21.28 -21.83,5.61 -46.06,-4.48 -60.89,-20.68 -7.54,-6.97 -5.04,-21.06 5.86,-22.17 z"
   id="path65" />
    <path
   fill="#f6921e"
   opacity="1"
   d="m 695,398.02 c 24.54,0.27 49.1,-0.67 73.62,0.42 -24.79,12.93 -49.55,25.9 -74.3,38.91 0.32,-8.42 0.59,-16.84 0.75,-25.27 16.89,-2.1 33.52,-5.78 50.26,-8.77 -16.78,-0.49 -33.56,-0.36 -50.34,-0.28 0,-1.68 0,-3.35 0.01,-5.01 z"
   id="path66" />
    <path
   fill="#ffffff"
   opacity="1"
   d="m 694.99,403.03 c 16.78,-0.08 33.56,-0.21 50.34,0.28 -16.74,2.99 -33.37,6.67 -50.26,8.77 -0.09,-3.05 -0.05,-6.03 -0.08,-9.05 z"
   id="path67" />
    <path
   fill="#ffffff"
   opacity="1"
   d="m 305.77,498.79 c 22.98,-39.69 65.59,-60.95 99.36,-89.99 46.12,18.52 91.03,47.3 117.96,90.13 -72.44,0.02 -144.88,0.3 -217.32,-0.14 z"
   id="path68" />
    <path
   fill="#f6921e"
   opacity="1"
   d="m 365.26,527.25 c 7.34,-0.22 14.69,-0.63 22.04,-1.01 -5.06,13.58 -16.63,24.58 -20.85,37.44 7.64,20.77 -2.88,42.7 -19.47,55.63 -3.91,-4.94 -7.39,-10.2 -11.02,-15.34 8.12,-7.89 15.78,-17.77 13.99,-29.94 -13.31,7.07 -26.54,15.21 -41.55,18.03 -1.9,-5.81 -3.53,-11.72 -4.47,-17.76 25.18,-7.45 50.28,-22.15 61.33,-47.05 z"
   id="path69" />
    <path
   fill="#f6921e"
   opacity="1"
   d="m 195.21,565.23 c 23.96,-1.76 46.83,-12.95 64.05,-29.55 5.49,4.45 11.52,8.21 17.93,11.2 -3.97,5.3 -13.01,8.37 -11.87,15.97 5.35,22.78 -8.09,46.98 -28.32,57.09 -5.13,-3.88 -6.63,-11.98 -9.97,-17.68 9.94,-6.8 19.76,-16.99 17.98,-30.18 -15.15,6.85 -31.08,12.46 -47.77,13.82 -0.47,-6.92 -1.02,-13.82 -2.03,-20.67 z"
   id="path70" />
  </g>

  <g
   id="f5"
   transform="translate(0,633)">
    <path
   fill="#000000"
   opacity="1"
   d="m 575.68,11.74 c 20.61,-9.62 47.19,3.21 54.1,24.52 6.59,15.9 2.08,33.13 -2.75,48.77 44.24,15.09 73.01,62.51 68.13,108.67 75.88,39.32 152.06,78.46 227.17,119.11 -75.77,0.45 -151.55,0.04 -227.32,0.2 -0.03,26.33 -0.04,52.65 0,78.98 46.12,0.23 92.25,-0.4 138.36,0.29 -49.36,27.14 -100.37,52.09 -149.86,79.21 -15.64,29.73 -46.49,50.72 -79.83,54.39 -72.69,0.73 -145.44,-0.83 -218.11,0.75 -7.44,0.29 -14.87,0.48 -22.3,0.59 -24.1,-0.38 -48.2,-0.18 -72.3,-0.23 -9.17,-0.04 -18.33,-0.15 -27.49,-0.25 -49.7,-2.67 -93.59,-44.18 -97.34,-94.13 -0.63,-32.7 0.43,-65.43 -0.41,-98.13 C 139.94,363.54 94.94,388.31 57.14,366.83 45.63,360.85 31.19,345.12 42.32,332.34 57.62,318.25 78.62,313.16 98.17,307.96 75.96,303.86 53.7,296.4 35.83,282.18 15.47,267.19 4.41,240.25 9.03,215.35 c 4,-15.34 22.65,-16.74 35.38,-12.93 44.44,12.5 83.15,38.96 121.55,63.62 0.09,-26.71 0.07,-53.42 -0.03,-80.13 -2.25,-30.28 12.39,-59.78 33.87,-80.45 -1.73,-26.13 7.68,-56.28 29.86,-71.61 8.18,15.52 13.42,40.34 31.94,45.13 5.07,-16.81 12.39,-35.66 28.06,-45.13 5.94,16.31 14.87,31.41 25.66,44.97 66.26,0.36 132.53,0.18 198.79,0.09 -9.14,-3.19 -17.86,-7.76 -25.79,-13.28 -7.83,-5.33 -3.5,-17.93 4.56,-20.76 27.76,-18.86 65.08,-11.16 91.04,7.23 -6.73,-11.61 -15.59,-27.27 -8.24,-40.36 m -291.7,60.31 c -0.66,2.3 -1.3,4.6 -1.93,6.91 h 4.9 c -0.64,-2.31 -1.28,-4.61 -1.93,-6.91 h -1.04 m -47.91,75.88 c 21.27,36.99 53.47,66.24 86.98,92.01 -43.76,-11.04 -81.87,-39.65 -107.85,-76.18 -9.42,9.19 -10.52,24.08 -4.25,35.31 12.16,22.2 35.12,35.02 55.77,48.21 27.19,15.04 55.39,28.34 84.52,39.16 -42.91,-0.41 -86.07,-13.87 -122.08,-37.49 -2.37,22.23 6.48,45.75 23.84,60.05 31.05,24.74 73.46,28.49 111.65,29.32 -31.41,5.56 -65.49,4.22 -96.61,-4.38 -26.35,-6.68 -49.31,-27.6 -55.51,-54.44 -5.14,-17.25 -4.75,-35.46 -3.82,-53.25 -5.91,-5.87 -11.14,-12.36 -15.2,-19.64 -1.19,52.75 -0.25,105.6 -0.43,158.39 0.08,23.12 -0.71,46.27 0.44,69.38 5.17,36.86 40.78,67.74 78.43,64.66 83.71,-0.14 167.43,0.07 251.14,-0.1 24.26,0.11 48.53,0.11 72.79,0.05 40.17,-0.34 75.19,-38.95 72.2,-78.9 -0.22,-78.67 0.04,-157.34 -0.13,-236 2.41,-40.21 -32.39,-76.46 -71.98,-78.17 -105.05,0.28 -210.1,-0.16 -315.15,0.22 12.43,13.31 26.85,24.52 39.94,37.15 l 0.96,-0.04 -0.94,-0.19 C 376.1,189.6 439.54,247.71 437.36,326.15 433.69,295 417.84,266.7 398.22,242.78 357.62,193.28 302,159.81 255.73,116.27 243.1,103.67 230.89,89.77 224.74,72.74 c -11.07,24.93 -1.14,52.77 11.33,75.19 m -36.16,2.09 c 3.27,-3.08 9.48,-6.03 7.22,-11.25 -3.59,2.86 -5.34,7.2 -7.22,11.25 m 495.2,63.92 c -0.05,4.29 -0.08,8.59 -0.07,12.9 -0.14,8 -0.08,16 0.09,24.01 -0.33,14.71 -0.1,29.43 -0.12,44.15 51.41,-0.43 102.86,0.88 154.24,-0.66 -51.59,-26.42 -102.72,-53.67 -154.14,-80.4 M 695,408.02 c -0.01,1.67 -0.01,3.34 -0.01,5.01 0.04,3.04 0.01,6.02 0.11,9.08 -0.39,8.78 -1.4,17.53 -2.84,26.2 25.54,-13.1 50.86,-26.67 76.36,-39.87 -24.52,-1.09 -49.08,-0.15 -73.62,-0.42 z"
   id="path71" />
    <path
   fill="#00adee"
   opacity="1"
   d="m 283.98,72.05 h 1.04 c 0.65,2.3 1.29,4.6 1.93,6.91 h -4.9 c 0.63,-2.31 1.27,-4.61 1.93,-6.91 z"
   id="path72" />
    <path
   fill="#00adee"
   opacity="1"
   d="m 236.07,147.93 c -12.47,-22.42 -22.4,-50.26 -11.33,-75.19 6.15,17.03 18.36,30.93 30.99,43.53 46.27,43.54 101.89,77.01 142.49,126.51 19.62,23.92 35.47,52.22 39.14,83.37 C 439.54,247.71 376.1,189.6 320.78,143.06 l 0.94,0.19 c 91.68,-0.53 183.39,-0.19 275.08,-0.18 28.84,0.35 55.21,17.67 71.15,41.02 0.17,78.66 -0.09,157.33 0.13,236 2.99,39.95 -32.03,78.56 -72.2,78.9 -24.26,0.06 -48.53,0.06 -72.79,-0.05 -17.65,-29.42 -45.25,-51.32 -74.33,-68.7 C 371.83,385.4 281.72,364.63 193.08,365 c 0.18,-52.79 -0.76,-105.64 0.43,-158.39 4.06,7.28 9.29,13.77 15.2,19.64 -0.93,17.79 -1.32,36 3.82,53.25 6.2,26.84 29.16,47.76 55.51,54.44 31.12,8.6 65.2,9.94 96.61,4.38 -38.19,-0.83 -80.6,-4.58 -111.65,-29.32 -17.36,-14.3 -26.21,-37.82 -23.84,-60.05 36.01,23.62 79.17,37.08 122.08,37.49 -29.13,-10.82 -57.33,-24.12 -84.52,-39.16 -20.65,-13.19 -43.61,-26.01 -55.77,-48.21 -6.27,-11.23 -5.17,-26.12 4.25,-35.31 25.98,36.53 64.09,65.14 107.85,76.18 -33.51,-25.77 -65.71,-55.02 -86.98,-92.01 m 267.95,109.09 c -23.33,16.52 -35.26,47.43 -31.85,75.6 2.24,44.5 45.26,81.95 89.66,78.47 41.76,-0.01 80.5,-35.52 82.88,-77.38 14.1,-46.46 -20.81,-98.66 -68.82,-103.77 -26.6,-2.41 -53.9,7.06 -71.87,27.08 m -33.79,141.27 c -11.88,1.16 -13.1,16.07 -5.52,22.99 14.97,15.72 38.81,25.71 60.43,20.07 9.59,-2.29 9.72,-15.09 3.98,-21.4 -14.46,-16.18 -37.38,-24.44 -58.89,-21.66 z"
   id="path73" />
    <path
   fill="#84d9f4"
   opacity="1"
   d="m 280.82,106.14 c 105.05,-0.38 210.1,0.06 315.15,-0.22 39.59,1.71 74.39,37.96 71.98,78.17 -15.94,-23.35 -42.31,-40.67 -71.15,-41.02 -91.69,-0.01 -183.4,-0.35 -275.08,0.18 l -0.96,0.04 c -13.09,-12.63 -27.51,-23.84 -39.94,-37.15 z"
   id="path74" />
    <path
   fill="#5890a2"
   opacity="1"
   d="m 199.91,150.02 c 1.88,-4.05 3.63,-8.39 7.22,-11.25 2.26,5.22 -3.95,8.17 -7.22,11.25 z"
   id="path75" />
    <path
   fill="#f6921e"
   opacity="1"
   d="m 695.11,213.94 c 51.42,26.73 102.55,53.98 154.14,80.4 -51.38,1.54 -102.83,0.23 -154.24,0.66 0.02,-14.72 -0.21,-29.44 0.12,-44.15 38.28,9.58 75.85,21.82 113.94,32.12 -37.97,-18.8 -75.83,-37.8 -114.03,-56.13 -0.01,-4.31 0.02,-8.61 0.07,-12.9 z"
   id="path76" />
    <path
   fill="#ffffff"
   opacity="1"
   d="m 695.04,226.84 c 38.2,18.33 76.06,37.33 114.03,56.13 -38.09,-10.3 -75.66,-22.54 -113.94,-32.12 -0.17,-8.01 -0.23,-16.01 -0.09,-24.01 z"
   id="path77" />
    <path
   fill="#000000"
   opacity="1"
   d="m 504.02,257.02 c 17.97,-20.02 45.27,-29.49 71.87,-27.08 48.01,5.11 82.92,57.31 68.82,103.77 -10.43,34.2 -43.83,61.72 -80.5,59.25 -33.66,0.31 -65.74,-23.04 -75.98,-55.08 -10.6,-27.42 -3.03,-58.97 15.79,-80.86 m 25.37,-1.98 -0.19,0.67 c -25.64,16.1 -38.08,50.94 -26.08,79.25 13.76,40.1 67.74,56.71 101.25,30.57 l -0.93,-0.02 c 25.04,-15.22 35.75,-49.79 24.93,-76.97 -13.12,-39.12 -64.71,-56.9 -98.98,-33.5 z"
   id="path78" />
    <path
   fill="#ffffff"
   opacity="1"
   d="m 529.39,255.04 c 34.27,-23.4 85.86,-5.62 98.98,33.5 10.82,27.18 0.11,61.75 -24.93,76.97 -32.69,3.07 -65.95,-16.63 -77.17,-47.74 -7.92,-20.14 -4.51,-42.37 2.93,-62.06 l 0.19,-0.67 m 33.57,75.88 c 13.76,21.77 51.25,4.47 43.07,-20.37 -3.04,11.2 -20.64,11.43 -22.77,-0.14 -2.63,-7.63 4.64,-12.1 10.04,-15.58 -21.86,-10.77 -44.96,16.75 -30.34,36.09 z"
   id="path79" />
    <path
   fill="#d0d2d3"
   opacity="1"
   d="m 503.12,334.96 c -12,-28.31 0.44,-63.15 26.08,-79.25 -7.44,19.69 -10.85,41.92 -2.93,62.06 11.22,31.11 44.48,50.81 77.17,47.74 l 0.93,0.02 c -33.51,26.14 -87.49,9.53 -101.25,-30.57 z"
   id="path80" />
    <path
   fill="#0594c1"
   opacity="1"
   d="m 472.17,332.62 c -3.41,-28.17 8.52,-59.08 31.85,-75.6 -18.82,21.89 -26.39,53.44 -15.79,80.86 10.24,32.04 42.32,55.39 75.98,55.08 36.67,2.47 70.07,-25.05 80.5,-59.25 -2.38,41.86 -41.12,77.37 -82.88,77.38 -44.4,3.48 -87.42,-33.97 -89.66,-78.47 z"
   id="path81" />
    <path
   fill="#000000"
   opacity="1"
   d="m 562.96,330.92 c -14.62,-19.34 8.48,-46.86 30.34,-36.09 -5.4,3.48 -12.67,7.95 -10.04,15.58 2.13,11.57 19.73,11.34 22.77,0.14 8.18,24.84 -29.31,42.14 -43.07,20.37 z"
   id="path82" />
    <path
   fill="#ffffff"
   opacity="1"
   d="m 193.08,365 c 88.64,-0.37 178.75,20.4 255.68,65.24 29.08,17.38 56.68,39.28 74.33,68.7 -83.71,0.17 -167.43,-0.04 -251.14,0.1 -37.65,3.08 -73.26,-27.8 -78.43,-64.66 -1.15,-23.11 -0.36,-46.26 -0.44,-69.38 z"
   id="path83" />
    <path
   fill="#000000"
   opacity="1"
   d="m 470.23,398.29 c 21.51,-2.78 44.43,5.48 58.89,21.66 5.74,6.31 5.61,19.11 -3.98,21.4 -21.62,5.64 -45.46,-4.35 -60.43,-20.07 -7.58,-6.92 -6.36,-21.83 5.52,-22.99 z"
   id="path84" />
    <path
   fill="#f6921e"
   opacity="1"
   d="m 695,408.02 c 24.54,0.27 49.1,-0.67 73.62,0.42 -25.5,13.2 -50.82,26.77 -76.36,39.87 1.44,-8.67 2.45,-17.42 2.84,-26.2 16.87,-2.16 33.5,-5.81 50.24,-8.78 -16.79,-0.55 -33.57,-0.36 -50.35,-0.3 0,-1.67 0,-3.34 0.01,-5.01 z"
   id="path85" />
    <path
   fill="#ffffff"
   opacity="1"
   d="m 694.99,413.03 c 16.78,-0.06 33.56,-0.25 50.35,0.3 -16.74,2.97 -33.37,6.62 -50.24,8.78 -0.1,-3.06 -0.07,-6.04 -0.11,-9.08 z"
   id="path86" />
    <path
   fill="#f6921e"
   opacity="1"
   d="m 189.28,551.17 c 26.69,1.35 53.44,-7.72 74.2,-24.43 9.16,0.1 18.32,0.21 27.49,0.25 -8.95,11.59 -20.27,20.95 -32.73,28.55 4.26,24.57 -13.91,47.57 -36.09,55.41 -5.39,-3.74 -5.62,-12.66 -7.85,-18.85 11.24,-4.75 22.01,-13.99 22.78,-26.97 -16.14,3.34 -32.17,7.99 -48.86,7.05 0.36,-7.01 0.7,-14.02 1.06,-21.01 z"
   id="path87" />
    <path
   fill="#f6921e"
   opacity="1"
   d="m 363.27,527.22 c 7.43,-0.11 14.86,-0.3 22.3,-0.59 -4.38,13.23 -16.63,21.59 -25.33,31.81 5.04,21.98 -7.74,45.42 -27.82,54.76 -2.03,-5.58 -6.89,-10.78 -7.08,-16.76 8.85,-6.11 16.99,-14.9 16.54,-26.47 -14.12,4.49 -27.67,10.8 -42.83,11.18 -1.96,-6.1 -2.55,-12.55 -2.82,-18.92 25.79,-1.55 51.6,-13.9 67.04,-35.01 z"
   id="path88" />
  </g>
  <g
   id="f6"
   transform="translate(927,633)">
    <path
   fill="#000000"
   opacity="1"
   d="m 576.2,11.19 c 19.46,-7.79 43.87,2.21 52.05,21.51 8.49,16.56 4.17,35.57 -1.22,52.32 44.22,15.11 73.04,62.52 68.1,108.7 75.88,39.31 152.16,78.38 227.17,119.16 -75.76,0.3 -151.52,0.01 -227.29,0.13 -0.03,26.33 -0.04,52.65 0,78.98 46.11,0.2 92.22,-0.32 138.32,0.23 -49.23,27.22 -100.34,52.18 -149.86,79.24 -15.52,29.8 -46.47,50.7 -79.76,54.43 -72.71,0.7 -145.48,-0.81 -218.17,0.73 -7.42,0.29 -14.85,0.47 -22.27,0.59 -24.09,-0.38 -48.18,-0.15 -72.28,-0.23 -9.18,-0.03 -18.35,-0.12 -27.52,-0.23 -49.68,-2.63 -93.55,-44.22 -97.36,-94.11 -0.57,-32.72 0.47,-65.46 -0.4,-98.16 C 139.62,364.03 93.02,389.26 55.3,365.7 44.51,359.7 31.56,344.2 42.33,332.33 57.64,318.25 78.63,313.14 98.19,307.96 76.2,303.91 54.17,296.56 36.39,282.62 15.7,267.67 4.34,240.47 9.04,215.32 c 6.67,-20.78 33.06,-14.98 48.51,-8.84 39.04,13.93 73.84,37.2 108.43,59.56 0.17,-31.62 -0.16,-63.25 0.08,-94.87 5,-47.84 46.31,-88.54 94.4,-91.96 84.54,-0.58 169.11,0.09 253.67,-0.32 -9.18,-3.11 -17.84,-7.8 -25.82,-13.24 -7.82,-5.35 -3.51,-17.97 4.59,-20.78 27.77,-18.9 65.06,-11.12 91.05,7.22 C 577,40.26 567.97,24.31 576.2,11.19 M 193.05,184.11 c -0.21,10.83 -0.14,21.66 0.17,32.49 60.69,28.57 130.89,24.94 192.01,52.19 24.74,10.03 46.82,30.47 52.74,57.22 -12.06,-15.5 -25.73,-30.67 -43.79,-39.18 -35.17,-18.62 -76.05,-17.52 -114.24,-24.74 -22.1,-3.29 -43.53,-9.65 -64.78,-16.18 9.14,16.6 27.87,24.42 44.67,31.27 25.39,9.54 51.73,16.88 78.67,20.37 -44.39,2.67 -91.78,-3.36 -129.53,-28.52 6.36,11.96 19.26,18.45 31.08,23.91 36.59,16.01 77.11,19.22 116.45,22.19 -45.49,6.03 -94.05,5.17 -136.52,-14.15 9.37,12.51 24.15,19.39 38.95,23.1 35.58,9.97 72.83,9.61 109.39,12.36 -48.11,8.04 -101.69,11.86 -146.16,-11.61 -17.13,-7.23 -18.63,-26.96 -28.79,-39.5 -0.93,26.53 -0.16,53.12 -0.29,79.67 0.12,23.43 -0.8,46.9 0.54,70.3 5.47,32.69 34.14,61.04 67.54,63.59 87.31,0.23 174.62,0.11 261.93,0.05 24.25,0.13 48.5,0.07 72.76,0.07 36.97,-0.3 69.3,-32.93 72.13,-69.18 0.01,-81.91 0.09,-163.82 -0.04,-245.73 2.42,-39.9 -31.8,-75.86 -71.03,-78.15 -109.94,0.09 -219.88,0.06 -329.82,0.01 -40.35,0.29 -76.3,37.71 -74.04,78.15 m 502.05,29.84 c -0.06,4.29 -0.09,8.58 -0.07,12.88 -0.15,8.01 -0.09,16.01 0.09,24.03 -0.34,14.7 -0.07,29.42 -0.11,44.13 51.41,-0.43 102.89,0.92 154.25,-0.67 C 797.64,267.97 746.55,240.63 695.1,213.95 M 695,408.02 c -0.01,1.67 -0.02,3.34 -0.01,5.02 0.04,3.02 0,6 0.1,9.06 -0.41,8.78 -1.3,17.54 -2.85,26.2 25.54,-13.03 50.88,-26.68 76.39,-39.82 -24.5,-1.24 -49.09,-0.13 -73.63,-0.46 z"
   id="path89" />
    <path
   fill="#84d9f4"
   opacity="1"
   d="m 193.05,184.11 c -2.26,-40.44 33.69,-77.86 74.04,-78.15 109.94,0.05 219.88,0.08 329.82,-0.01 39.23,2.29 73.45,38.25 71.03,78.15 -16.5,-24.68 -44.93,-41.92 -75.1,-41.02 -108.29,-0.26 -216.59,0.11 -324.88,-0.18 -30.15,-1.09 -58.27,16.84 -74.91,41.21 z"
   id="path90" />
    <path
   fill="#00adee"
   opacity="1"
   d="m 193.05,184.11 c 16.64,-24.37 44.76,-42.3 74.91,-41.21 108.29,0.29 216.59,-0.08 324.88,0.18 30.17,-0.9 58.6,16.34 75.1,41.02 0.13,81.91 0.05,163.82 0.04,245.73 -2.83,36.25 -35.16,68.88 -72.13,69.18 -24.26,0 -48.51,0.06 -72.76,-0.07 C 500.12,460.87 461.65,435.98 422.99,416 351.66,381.73 272.17,364.19 193.08,365 c 0.13,-26.55 -0.64,-53.14 0.29,-79.67 10.16,12.54 11.66,32.27 28.79,39.5 44.47,23.47 98.05,19.65 146.16,11.61 -36.56,-2.75 -73.81,-2.39 -109.39,-12.36 -14.8,-3.71 -29.58,-10.59 -38.95,-23.1 42.47,19.32 91.03,20.18 136.52,14.15 -39.34,-2.97 -79.86,-6.18 -116.45,-22.19 -11.82,-5.46 -24.72,-11.95 -31.08,-23.91 37.75,25.16 85.14,31.19 129.53,28.52 -26.94,-3.49 -53.28,-10.83 -78.67,-20.37 -16.8,-6.85 -35.53,-14.67 -44.67,-31.27 21.25,6.53 42.68,12.89 64.78,16.18 38.19,7.22 79.07,6.12 114.24,24.74 18.06,8.51 31.73,23.68 43.79,39.18 -5.92,-26.75 -28,-47.19 -52.74,-57.22 -61.12,-27.25 -131.32,-23.62 -192.01,-52.19 -0.31,-10.83 -0.38,-21.66 -0.17,-32.49 m 310.98,72.92 c -33.26,23.71 -41.82,73.9 -22.03,108.96 15.21,28.45 47.4,47.43 79.84,45.1 41.76,-0.01 80.49,-35.54 82.88,-77.37 12.17,-42.31 -14.46,-90.03 -57,-101.45 -29.7,-7.66 -63.11,1.79 -83.69,24.76 m -33.98,141.46 c -10.84,1.24 -13.37,15.24 -5.78,22.21 14.83,16.16 39.09,26.33 60.89,20.63 9.92,-2.42 9.58,-15.73 3.5,-22 C 514,403.69 491.39,395.26 470.05,398.49 Z"
   id="path91" />
    <path
   fill="#f6921e"
   opacity="1"
   d="m 695.1,213.95 c 51.45,26.68 102.54,54.02 154.16,80.37 -51.36,1.59 -102.84,0.24 -154.25,0.67 0.04,-14.71 -0.23,-29.43 0.11,-44.13 38.28,9.57 75.86,21.8 113.94,32.12 -37.95,-18.82 -75.83,-37.8 -114.03,-56.15 -0.02,-4.3 0.01,-8.59 0.07,-12.88 z"
   id="path92" />
    <path
   fill="#ffffff"
   opacity="1"
   d="m 695.03,226.83 c 38.2,18.35 76.08,37.33 114.03,56.15 -38.08,-10.32 -75.66,-22.55 -113.94,-32.12 -0.18,-8.02 -0.24,-16.02 -0.09,-24.03 z"
   id="path93" />
    <path
   fill="#000000"
   opacity="1"
   d="m 504.03,257.03 c 20.58,-22.97 53.99,-32.42 83.69,-24.76 42.54,11.42 69.17,59.14 57,101.45 -8.2,26.01 -28.67,47.88 -54.86,56.16 -31.85,9.64 -69.17,-1.65 -89.19,-28.54 -23.64,-30.03 -22.43,-75.84 3.36,-104.31 m 25.37,-1.98 -0.18,0.68 c -25.67,16.04 -38.12,50.95 -26.09,79.22 13.73,40.13 67.75,56.71 101.26,30.57 l -0.93,-0.02 c 28.15,-17.03 37.29,-57.56 20.87,-85.83 -17.12,-33.53 -63.67,-45.66 -94.93,-24.62 z"
   id="path94" />
    <path
   fill="#ffffff"
   opacity="1"
   d="m 529.4,255.05 c 31.26,-21.04 77.81,-8.91 94.93,24.62 16.42,28.27 7.28,68.8 -20.87,85.83 -32.69,3.09 -65.97,-16.61 -77.18,-47.73 -7.96,-20.14 -4.53,-42.37 2.94,-62.04 l 0.18,-0.68 m 29.5,60.23 c -2.27,15.8 14.54,29.81 29.74,24.76 12.77,-2.45 21.08,-17.23 17.24,-29.51 -2.82,11.33 -20.56,11.37 -22.62,-0.12 -2.61,-7.6 4.58,-12.19 10.08,-15.53 -14.78,-6.72 -34.73,3.47 -34.44,20.4 z"
   id="path95" />
    <path
   fill="#d0d2d3"
   opacity="1"
   d="m 503.13,334.95 c -12.03,-28.27 0.42,-63.18 26.09,-79.22 -7.47,19.67 -10.9,41.9 -2.94,62.04 11.21,31.12 44.49,50.82 77.18,47.73 l 0.93,0.02 c -33.51,26.14 -87.53,9.56 -101.26,-30.57 z"
   id="path96" />
    <path
   fill="#0594c1"
   opacity="1"
   d="m 482,365.99 c -19.79,-35.06 -11.23,-85.25 22.03,-108.96 -25.79,28.47 -27,74.28 -3.36,104.31 20.02,26.89 57.34,38.18 89.19,28.54 26.19,-8.28 46.66,-30.15 54.86,-56.16 -2.39,41.83 -41.12,77.36 -82.88,77.37 -32.44,2.33 -64.63,-16.65 -79.84,-45.1 z"
   id="path97" />
    <path
   fill="#000000"
   opacity="1"
   d="m 558.9,315.28 c -0.29,-16.93 19.66,-27.12 34.44,-20.4 -5.5,3.34 -12.69,7.93 -10.08,15.53 2.06,11.49 19.8,11.45 22.62,0.12 3.84,12.28 -4.47,27.06 -17.24,29.51 -15.2,5.05 -32.01,-8.96 -29.74,-24.76 z"
   id="path98" />
    <path
   fill="#ffffff"
   opacity="1"
   d="m 193.08,365 c 79.09,-0.81 158.58,16.73 229.91,51 38.66,19.98 77.13,44.87 100.1,82.94 -87.31,0.06 -174.62,0.18 -261.93,-0.05 -33.4,-2.55 -62.07,-30.9 -67.54,-63.59 -1.34,-23.4 -0.42,-46.87 -0.54,-70.3 z"
   id="path99" />
    <path
   fill="#000000"
   opacity="1"
   d="m 470.05,398.49 c 21.34,-3.23 43.95,5.2 58.61,20.84 6.08,6.27 6.42,19.58 -3.5,22 -21.8,5.7 -46.06,-4.47 -60.89,-20.63 -7.59,-6.97 -5.06,-20.97 5.78,-22.21 z"
   id="path100" />
    <path
   fill="#f6921e"
   opacity="1"
   d="m 695,408.02 c 24.54,0.33 49.13,-0.78 73.63,0.46 -25.51,13.14 -50.85,26.79 -76.39,39.82 1.55,-8.66 2.44,-17.42 2.85,-26.2 16.89,-2.12 33.51,-5.83 50.26,-8.76 -16.78,-0.64 -33.58,-0.31 -50.36,-0.3 -0.01,-1.68 0,-3.35 0.01,-5.02 z"
   id="path101" />
    <path
   fill="#ffffff"
   opacity="1"
   d="m 694.99,413.04 c 16.78,-0.01 33.58,-0.34 50.36,0.3 -16.75,2.93 -33.37,6.64 -50.26,8.76 -0.1,-3.06 -0.06,-6.04 -0.1,-9.06 z"
   id="path102" />
    <path
   fill="#f6921e"
   opacity="1"
   d="m 189.25,551.16 c 26.69,1.37 53.47,-7.7 74.22,-24.41 9.17,0.11 18.34,0.2 27.52,0.23 -8.95,11.59 -20.28,20.96 -32.77,28.56 4.33,24.58 -13.92,47.53 -36.05,55.43 -5.5,-3.76 -5.61,-12.68 -7.87,-18.87 11.23,-4.72 22.06,-14.01 22.77,-26.98 -16.14,3.35 -32.17,8.03 -48.87,7.05 0.38,-7.01 0.72,-14.02 1.05,-21.01 z"
   id="path103" />
    <path
   fill="#f6921e"
   opacity="1"
   d="m 363.27,527.21 c 7.42,-0.12 14.85,-0.3 22.27,-0.59 -4.29,13.19 -16.54,21.65 -25.35,31.78 5.16,21.93 -7.68,45.51 -27.78,54.77 -2.05,-5.61 -6.81,-10.72 -7.11,-16.75 8.89,-6.03 17.03,-14.89 16.59,-26.43 -14.12,4.4 -27.63,10.85 -42.8,11.15 -2.2,-6.06 -2.48,-12.58 -2.87,-18.94 25.79,-1.48 51.63,-13.89 67.05,-34.99 z"
   id="path104" />
  </g>
  <g
   id="f7"
   transform="translate(1854,633)">
    <path
   fill="#000000"
   opacity="1"
   d="m 576.19,11.18 c 19.47,-7.75 43.87,2.21 52.06,21.51 8.46,16.58 4.18,35.6 -1.23,52.35 44.26,15.07 73.02,62.52 68.14,108.69 75.9,39.26 152.04,78.45 227.17,119.07 -75.77,0.48 -151.55,0.05 -227.32,0.21 -0.02,26.32 -0.03,52.65 0,78.98 46.12,0.24 92.26,-0.42 138.37,0.31 -49.41,27.09 -100.36,52.1 -149.88,79.18 -15.56,29.82 -46.49,50.67 -79.81,54.4 -55.47,0.45 -110.97,-0.27 -166.44,0.33 -11.85,21.88 -22.78,45.3 -21.64,70.88 -21.87,-6.62 -39.91,-26.76 -44.85,-49.08 6.19,-6.12 10.87,-13.5 15.34,-20.91 -6.32,-0.06 -12.63,-0.08 -18.94,-0.04 -12,21.35 -22.51,44.8 -21.48,69.88 -5.07,-0.85 -9.8,-2.97 -14.31,-5.36 -5.48,-4.39 -10.71,-9.14 -15.11,-14.63 -3.83,-4.68 -7.83,-9.31 -10.46,-14.8 -5.9,-11 -9.69,-23.2 -8.93,-35.82 -1.69,0.17 -5.06,0.52 -6.74,0.69 -8.88,0.03 -17.74,-0.23 -26.61,-0.25 -47.56,-2.72 -91.16,-40.98 -96.34,-88.99 -2.82,-34.32 -0.08,-68.83 -1.5,-103.21 -25.83,28.98 -70.76,53.74 -108.54,32.26 -11.5,-5.99 -25.97,-21.71 -14.81,-34.49 15.3,-14.09 36.3,-19.19 55.84,-24.39 C 75.95,303.93 53.71,296.37 35.83,282.18 15.47,267.19 4.41,240.25 9.03,215.35 c 6.45,-20.51 32.53,-15.17 47.79,-9.12 39.32,13.89 74.36,37.29 109.13,59.82 0.22,-31.62 -0.16,-63.24 0.12,-94.86 4.98,-47.82 46.3,-88.64 94.41,-91.94 84.53,-0.68 169.09,0.07 253.63,-0.35 -9.16,-3.14 -17.85,-7.78 -25.79,-13.27 -7.83,-5.32 -3.5,-17.94 4.57,-20.76 27.76,-18.88 65.07,-11.14 91.05,7.23 -6.92,-11.86 -15.97,-27.78 -7.75,-40.92 m -383.1,172.84 c -0.17,60.32 -0.12,120.65 -0.02,180.98 -0.16,19.96 -0.09,39.93 -0.09,59.89 -0.24,40.7 38.08,77.73 79.07,74.12 -6.34,-13.88 2.37,-29.42 -5.24,-42.83 -2.44,-9.7 -2.48,-20.15 -0.68,-29.94 8.32,-23.86 32.98,-34.24 52.88,-46.47 22.54,-10.59 45.77,-23.33 60.85,-43.92 -10.9,36.12 -47.73,53.78 -74.84,76.17 -11.54,9.06 -24.27,21.9 -22.58,37.87 19.74,-25.38 51.15,-38.66 80.88,-48.58 -21.59,17.13 -45.11,32.89 -61.33,55.64 -9.27,13.11 -9.93,32.4 2.23,44.07 8.99,-47.32 52.77,-75.73 92.62,-96.2 -29.15,30.82 -62.99,61.87 -73.37,104.67 -2.46,16.44 -3.62,34.44 4.31,49.59 11.44,-62.26 68.07,-101.32 96.02,-155.28 13.43,-23.48 20.67,-51.28 13.29,-78.06 12.06,29.84 4.71,64.48 -7.43,93.31 -11.81,28.19 -28.69,53.88 -45.03,79.6 46.14,0.77 92.3,0.21 138.46,0.28 22.63,0.19 45.27,-0.02 67.91,0.15 38.55,2.06 74.56,-31.03 76.97,-69.27 0.03,-81.91 0.1,-163.83 -0.04,-245.74 2.41,-39.9 -31.81,-75.84 -71.04,-78.12 -109.92,0.1 -219.84,0.04 -329.76,0.04 -40.32,0.23 -76.33,37.62 -74.04,78.03 m 502.04,29.88 c -0.06,4.32 -0.08,8.64 -0.07,12.97 -0.13,7.99 -0.08,15.99 0.07,23.99 -0.31,14.71 -0.1,29.42 -0.12,44.14 51.4,-0.44 102.86,0.88 154.23,-0.66 C 797.67,267.9 746.5,240.71 695.13,213.9 M 695,408.01 c -0.01,1.67 -0.01,3.34 -0.01,5.01 0.04,3.04 0.02,6.03 0.11,9.1 -0.39,8.78 -1.36,17.53 -2.85,26.19 25.53,-13.14 50.9,-26.64 76.39,-39.83 -24.52,-1.2 -49.1,-0.14 -73.64,-0.47 M 391.88,527.52 c -0.7,10.91 1.11,21.73 5.92,31.59 1.18,-11.18 5.9,-21.39 9.49,-31.9 -3.85,0.07 -11.56,0.23 -15.41,0.31 z"
   id="path105" />
    <path
   fill="#84d9f4"
   opacity="1"
   d="m 193.09,184.02 c -2.29,-40.41 33.72,-77.8 74.04,-78.03 109.92,0 219.84,0.06 329.76,-0.04 39.23,2.28 73.45,38.22 71.04,78.12 -16.53,-24.65 -44.92,-41.9 -75.1,-40.99 -108.25,-0.22 -216.52,0.02 -324.77,-0.11 -30.19,-1.18 -58.27,16.72 -74.97,41.05 z"
   id="path106" />
    <path
   fill="#00adee"
   opacity="1"
   d="m 193.09,184.02 c 16.7,-24.33 44.78,-42.23 74.97,-41.05 108.25,0.13 216.52,-0.11 324.77,0.11 30.18,-0.91 58.57,16.34 75.1,40.99 0.14,81.91 0.07,163.83 0.04,245.74 -2.41,38.24 -38.42,71.33 -76.97,69.27 -22.64,-0.17 -45.28,0.04 -67.91,-0.15 -21.46,-36.24 -57.66,-59.61 -93.43,-79.88 12.14,-28.83 19.49,-63.47 7.43,-93.31 7.38,26.78 0.14,54.58 -13.29,78.06 -27.95,53.96 -84.58,93.02 -96.02,155.28 -7.93,-15.15 -6.77,-33.15 -4.31,-49.59 10.38,-42.8 44.22,-73.85 73.37,-104.67 -39.85,20.47 -83.63,48.88 -92.62,96.2 -12.16,-11.67 -11.5,-30.96 -2.23,-44.07 16.22,-22.75 39.74,-38.51 61.33,-55.64 -29.73,9.92 -61.14,23.2 -80.88,48.58 -1.69,-15.97 11.04,-28.81 22.58,-37.87 27.11,-22.39 63.94,-40.05 74.84,-76.17 -15.08,20.59 -38.31,33.33 -60.85,43.92 -40.99,-10.83 -83.58,-15.39 -125.94,-14.77 -0.1,-60.33 -0.15,-120.66 0.02,-180.98 m 310.93,73 c -33.86,24.2 -42.1,75.7 -20.93,110.87 15.53,27.43 47.06,45.46 78.74,43.2 41.8,-0.01 80.46,-35.55 82.93,-77.41 14.32,-48.06 -23.55,-102.32 -73.7,-103.83 -25.19,-1.5 -50.07,8.58 -67.04,27.17 m -33.79,141.27 c -11.33,1.01 -12.97,14.82 -6.37,21.87 14.64,16.79 39.31,26.7 61.29,21.19 9.93,-2.43 9.58,-15.71 3.52,-22.01 -14.55,-15.78 -37.24,-23.45 -58.44,-21.05 z"
   id="path107" />
    <path
   fill="#f6921e"
   opacity="1"
   d="m 695.13,213.9 c 51.37,26.81 102.54,54 154.11,80.44 -51.37,1.54 -102.83,0.22 -154.23,0.66 0.02,-14.72 -0.19,-29.43 0.12,-44.14 38.28,9.56 75.85,21.82 113.94,32.1 -37.97,-18.76 -75.8,-37.81 -114.01,-56.09 -0.01,-4.33 0.01,-8.65 0.07,-12.97 z"
   id="path108" />
    <path
   fill="#ffffff"
   opacity="1"
   d="m 695.06,226.87 c 38.21,18.28 76.04,37.33 114.01,56.09 -38.09,-10.28 -75.66,-22.54 -113.94,-32.1 -0.15,-8 -0.2,-16 -0.07,-23.99 z"
   id="path109" />
    <path
   fill="#000000"
   opacity="1"
   d="m 504.02,257.02 c 16.97,-18.59 41.85,-28.67 67.04,-27.17 50.15,1.51 88.02,55.77 73.7,103.83 -10.52,34.18 -43.83,61.76 -80.56,59.29 -33.64,0.29 -65.74,-23.05 -75.97,-55.09 -10.62,-27.43 -3.01,-58.97 15.79,-80.86 m 25.37,-1.98 -0.18,0.67 c -25.65,16.1 -38.1,50.95 -26.08,79.25 13.76,40.12 67.7,56.68 101.26,30.59 l -0.95,-0.03 c 25.03,-15.24 35.77,-49.8 24.93,-76.98 -13.12,-39.12 -64.71,-56.9 -98.98,-33.5 z"
   id="path110" />
    <path
   fill="#ffffff"
   opacity="1"
   d="m 529.39,255.04 c 34.27,-23.4 85.86,-5.62 98.98,33.5 10.84,27.18 0.1,61.74 -24.93,76.98 -39.49,4.36 -79.15,-26.92 -81.36,-66.98 -2.1,-14.89 2.5,-29.01 7.13,-42.83 l 0.18,-0.67 m 33.58,75.88 c 13.75,21.78 51.28,4.44 43.04,-20.38 -2.99,11.22 -20.65,11.44 -22.75,-0.13 -2.61,-7.61 4.61,-12.14 10.05,-15.56 -21.85,-10.84 -45,16.76 -30.34,36.07 z"
   id="path111" />
    <path
   fill="#d0d2d3"
   opacity="1"
   d="m 503.13,334.96 c -12.02,-28.3 0.43,-63.15 26.08,-79.25 -4.63,13.82 -9.23,27.94 -7.13,42.83 2.21,40.06 41.87,71.34 81.36,66.98 l 0.95,0.03 c -33.56,26.09 -87.5,9.53 -101.26,-30.59 z"
   id="path112" />
    <path
   fill="#0594c1"
   opacity="1"
   d="m 483.09,367.89 c -21.17,-35.17 -12.93,-86.67 20.93,-110.87 -18.8,21.89 -26.41,53.43 -15.79,80.86 10.23,32.04 42.33,55.38 75.97,55.09 36.73,2.47 70.04,-25.11 80.56,-59.29 -2.47,41.86 -41.13,77.4 -82.93,77.41 -31.68,2.26 -63.21,-15.77 -78.74,-43.2 z"
   id="path113" />
    <path
   fill="#000000"
   opacity="1"
   d="m 562.97,330.92 c -14.66,-19.31 8.49,-46.91 30.34,-36.07 -5.44,3.42 -12.66,7.95 -10.05,15.56 2.1,11.57 19.76,11.35 22.75,0.13 8.24,24.82 -29.29,42.16 -43.04,20.38 z"
   id="path114" />
    <path
   fill="#ffffff"
   opacity="1"
   d="m 193.07,365 c 42.36,-0.62 84.95,3.94 125.94,14.77 -19.9,12.23 -44.56,22.61 -52.88,46.47 -1.8,9.79 -1.76,20.24 0.68,29.94 7.61,13.41 -1.1,28.95 5.24,42.83 -40.99,3.61 -79.31,-33.42 -79.07,-74.12 0,-19.96 -0.07,-39.93 0.09,-59.89 z"
   id="path115" />
    <path
   fill="#000000"
   opacity="1"
   d="m 470.23,398.29 c 21.2,-2.4 43.89,5.27 58.44,21.05 6.06,6.3 6.41,19.58 -3.52,22.01 -21.98,5.51 -46.65,-4.4 -61.29,-21.19 -6.6,-7.05 -4.96,-20.86 6.37,-21.87 z"
   id="path116" />
    <path
   fill="#f6921e"
   opacity="1"
   d="m 695,408.01 c 24.54,0.33 49.12,-0.73 73.64,0.47 -25.49,13.19 -50.86,26.69 -76.39,39.83 1.49,-8.66 2.46,-17.41 2.85,-26.19 16.88,-2.17 33.49,-5.83 50.24,-8.79 -16.79,-0.52 -33.57,-0.36 -50.35,-0.31 0,-1.67 0,-3.34 0.01,-5.01 z"
   id="path117" />
    <path
   fill="#ffffff"
   opacity="1"
   d="m 694.99,413.02 c 16.78,-0.05 33.56,-0.21 50.35,0.31 -16.75,2.96 -33.36,6.62 -50.24,8.79 -0.09,-3.07 -0.07,-6.06 -0.11,-9.1 z"
   id="path118" />
    <path
   fill="#ffffff"
   opacity="1"
   d="m 384.63,498.65 c 16.34,-25.72 33.22,-51.41 45.03,-79.6 35.77,20.27 71.97,43.64 93.43,79.88 -46.16,-0.07 -92.32,0.49 -138.46,-0.28 z"
   id="path119" />
    <path
   fill="#f6921e"
   opacity="1"
   d="m 189.26,551.17 c 26.73,1.39 53.43,-7.77 74.26,-24.4 8.87,0.02 17.73,0.28 26.61,0.25 l 0.95,0.01 c -9.14,11.42 -20.27,20.96 -32.83,28.46 4.08,23.27 -11.83,44.22 -31.81,54.05 -9.6,5.45 -9.46,-11.24 -12.16,-17.45 11.28,-4.7 22.03,-14 22.8,-26.96 -16.13,3.36 -32.18,7.98 -48.87,7.05 0.38,-7.01 0.71,-14.02 1.05,-21.01 z"
   id="path120" />
    <path
   fill="#f6921e"
   opacity="1"
   d="m 367.16,527.06 c 6.31,-0.04 12.62,-0.02 18.94,0.04 -4.47,7.41 -9.15,14.79 -15.34,20.91 -3.2,4.54 -11.69,7.15 -10.47,13.81 4.35,20.96 -9.13,42.51 -27.87,51.38 -3.32,-7.27 -12.48,-17.38 -1.05,-21.62 4.51,2.39 9.24,4.51 14.31,5.36 -1.03,-25.08 9.48,-48.53 21.48,-69.88 z"
   id="path121" />
    <path
   fill="#00adee"
   opacity="1"
   d="m 391.88,527.52 c 3.85,-0.08 11.56,-0.24 15.41,-0.31 -3.59,10.51 -8.31,20.72 -9.49,31.9 -4.81,-9.86 -6.62,-20.68 -5.92,-31.59 z"
   id="path122" />
    <path
   fill="#f6921e"
   opacity="1"
   d="m 296.19,562.03 c 3.18,-0.02 6.42,0.04 9.61,0.12 2.63,5.49 6.63,10.12 10.46,14.8 -4.68,4.13 -11.29,3.23 -17.08,4.23 -2.29,-6.11 -2.55,-12.72 -2.99,-19.15 z"
   id="path123" />
  </g>
  <g
   id="f8"
   transform="translate(2781,633)">
    <path
   fill="#000000"
   opacity="1"
   d="m 576.19,11.18 c 19.47,-7.75 43.88,2.21 52.06,21.52 8.49,16.56 4.16,35.56 -1.21,52.31 41.56,14.41 70.85,57.74 67.89,101.71 -0.48,2.69 -0.56,6.67 2.53,7.85 74.9,39.35 150.19,78.07 224.83,117.87 -75.71,1.34 -151.52,0.14 -227.27,0.58 -0.04,26.32 -0.06,52.64 0,78.96 46.1,0.21 92.2,-0.3 138.3,0.22 -49.18,27.27 -100.35,52.17 -149.84,79.27 -15.56,29.78 -46.47,50.71 -79.78,54.41 -72.71,0.71 -145.47,-0.8 -218.16,0.73 -7.42,0.28 -14.84,0.46 -22.25,0.59 -23.38,-0.29 -46.77,-0.26 -70.14,-0.16 -1.36,8.02 -2.22,16.11 -3.45,24.16 -5.69,-1.48 -11.2,-3.68 -16.44,-6.34 -6.23,-3.59 -12.22,-7.76 -17.06,-13.11 -1.21,-1.59 -3.62,-4.77 -4.83,-6.35 -44.85,-8.26 -81.61,-47 -85.24,-92.78 -0.61,-32.7 0.44,-65.43 -0.4,-98.13 -16.08,18.53 -37.8,32.34 -61.5,38.81 -23.2,6.26 -51.88,-1.83 -64.19,-23.48 -3.8,-6.14 -1.62,-13.75 3.29,-18.54 C 58.76,318.1 79.01,312.98 98.18,307.96 75.96,303.86 53.7,296.4 35.83,282.18 15.47,267.19 4.4,240.24 9.03,215.34 c 6.65,-20.81 33.08,-14.98 48.52,-8.86 39.05,13.93 73.84,37.22 108.44,59.54 0.16,-31.61 -0.19,-63.23 0.07,-94.84 4.99,-47.83 46.31,-88.6 94.41,-91.95 84.54,-0.62 169.11,0.07 253.65,-0.32 C 501.92,73.34 476.65,66.9 486.97,49.27 514.5,25.42 556.18,32.21 583.95,52.1 577.02,40.24 567.97,24.33 576.19,11.18 m -383.14,172.9 c -0.07,60.3 -0.12,120.61 0.04,180.92 0.06,23.08 -0.71,46.21 0.41,69.27 4.36,28.26 25.47,52.62 52.4,61.85 -13.51,-15.16 -20.72,-36.39 -15.59,-56.53 3.48,-12.2 -4.91,-23.85 -2.26,-36.25 -0.03,-17.9 16.78,-29.25 32.07,-34.55 39.44,-12.11 84.59,-8.46 119.86,-32.87 -33.14,33.6 -84.87,31.61 -122.6,57.33 -9.23,5.71 -10.31,16.91 -8.46,26.62 25.23,-28.85 64.9,-38.17 101.3,-42.76 -29.38,13.06 -59.5,26.52 -83.01,49.09 -10.51,10.52 -20.69,25.27 -16.15,40.98 18.67,-36.6 56.8,-56.52 95.07,-66.07 -28.7,19.99 -59.69,40.98 -75.76,73.21 -6.02,12.88 -4.88,31.65 6.62,40.4 3.88,-12.54 6.45,-27.53 15,-38.74 25.88,-41.23 72.95,-59.76 109.28,-89.7 18.82,-14.92 33.46,-36.32 36.35,-60.52 9.19,31.49 -8,63.74 -32.48,83.05 -33.73,29.04 -76.52,50.35 -99.4,89.99 72.45,0.44 144.9,0.14 217.36,0.15 25.84,-0.01 51.7,0.34 77.54,-0.14 38.18,-3.43 70.32,-40.3 67.43,-78.72 -0.21,-78.66 0.06,-157.33 -0.13,-235.99 2.41,-39.9 -31.8,-75.87 -71.04,-78.15 -109.93,0.09 -219.86,0.07 -329.79,0.01 -40.36,0.29 -76.29,37.68 -74.06,78.12 M 695.08,214 c -0.06,4.26 -0.09,8.53 -0.06,12.8 -0.16,8.02 -0.09,16.03 0.09,24.05 -0.34,14.71 -0.07,29.42 -0.09,44.14 51.4,-0.42 102.87,0.9 154.24,-0.65 C 797.63,267.98 746.58,240.58 695.08,214 M 695,408.03 c -0.01,1.67 -0.02,3.34 -0.01,5.02 0.03,3.02 0,5.99 0.1,9.04 -0.41,8.78 -1.33,17.54 -2.86,26.2 25.55,-13.08 50.91,-26.62 76.41,-39.82 -24.52,-1.18 -49.1,-0.16 -73.64,-0.44 z"
   id="path124" />
    <path
   fill="#84d9f4"
   opacity="1"
   d="m 193.05,184.08 c -2.23,-40.44 33.7,-77.83 74.06,-78.12 109.93,0.06 219.86,0.08 329.79,-0.01 39.24,2.28 73.45,38.25 71.04,78.15 -15.7,-23.21 -41.73,-40.33 -70.29,-40.84 -109.89,-0.68 -219.79,0.05 -329.68,-0.36 -30.17,-1.1 -58.24,16.85 -74.92,41.18 z"
   id="path125" />
    <path
   fill="#00adee"
   opacity="1"
   d="m 193.05,184.08 c 16.68,-24.33 44.75,-42.28 74.92,-41.18 109.89,0.41 219.79,-0.32 329.68,0.36 28.56,0.51 54.59,17.63 70.29,40.84 0.19,78.66 -0.08,157.33 0.13,235.99 2.89,38.42 -29.25,75.29 -67.43,78.72 -25.84,0.48 -51.7,0.13 -77.54,0.14 -26.93,-42.83 -71.84,-71.64 -117.96,-90.14 24.48,-19.31 41.67,-51.56 32.48,-83.05 -2.89,24.2 -17.53,45.6 -36.35,60.52 -36.33,29.94 -83.4,48.47 -109.28,89.7 -8.55,11.21 -11.12,26.2 -15,38.74 -11.5,-8.75 -12.64,-27.52 -6.62,-40.4 16.07,-32.23 47.06,-53.22 75.76,-73.21 -38.27,9.55 -76.4,29.47 -95.07,66.07 -4.54,-15.71 5.64,-30.46 16.15,-40.98 23.51,-22.57 53.63,-36.03 83.01,-49.09 -36.4,4.59 -76.07,13.91 -101.3,42.76 -1.85,-9.71 -0.77,-20.91 8.46,-26.62 37.73,-25.72 89.46,-23.73 122.6,-57.33 -35.27,24.41 -80.42,20.76 -119.86,32.87 -22.22,-2.86 -44.62,-4.53 -67.03,-3.79 -0.16,-60.31 -0.11,-120.62 -0.04,-180.92 m 310.97,72.95 c -33.86,24.16 -42.1,75.69 -20.93,110.86 15.54,27.43 47.06,45.46 78.75,43.2 41.76,-0.01 80.48,-35.53 82.88,-77.37 12.58,-42.43 -14.6,-89.94 -57,-101.45 -29.7,-7.65 -63.11,1.79 -83.7,24.76 M 470.07,398.5 c -10.85,1.2 -13.38,15.22 -5.81,22.19 14.83,16.18 39.08,26.32 60.89,20.65 9.93,-2.43 9.59,-15.71 3.51,-22 -14.65,-15.64 -37.25,-24.08 -58.59,-20.84 z"
   id="path126" />
    <path
   fill="#f6921e"
   opacity="1"
   d="m 695.08,214 c 51.5,26.58 102.55,53.98 154.18,80.34 -51.37,1.55 -102.84,0.23 -154.24,0.65 0.02,-14.72 -0.25,-29.43 0.09,-44.14 38.29,9.59 75.87,21.8 113.95,32.14 -37.95,-18.85 -75.86,-37.8 -114.04,-56.19 -0.03,-4.27 0,-8.54 0.06,-12.8 z"
   id="path127" />
    <path
   fill="#ffffff"
   opacity="1"
   d="m 695.02,226.8 c 38.18,18.39 76.09,37.34 114.04,56.19 -38.08,-10.34 -75.66,-22.55 -113.95,-32.14 -0.18,-8.02 -0.25,-16.03 -0.09,-24.05 z"
   id="path128" />
    <path
   fill="#000000"
   opacity="1"
   d="m 504.02,257.03 c 20.59,-22.97 54,-32.41 83.7,-24.76 42.4,11.51 69.58,59.02 57,101.45 -10.47,34.18 -43.84,61.71 -80.52,59.25 -33.64,0.29 -65.75,-23.05 -75.96,-55.1 -10.65,-27.41 -3.02,-58.96 15.78,-80.84 m 25.38,-1.97 -0.19,0.67 c -25.67,16.05 -38.09,50.94 -26.08,79.22 13.74,40.12 67.73,56.71 101.25,30.59 l -0.93,-0.04 c 28.16,-17.01 37.3,-57.56 20.88,-85.83 -17.12,-33.53 -63.68,-45.66 -94.93,-24.61 z"
   id="path129" />
    <path
   fill="#ffffff"
   opacity="1"
   d="m 529.4,255.06 c 31.25,-21.05 77.81,-8.92 94.93,24.61 16.42,28.27 7.28,68.82 -20.88,85.83 -32.7,3.08 -65.95,-16.62 -77.18,-47.73 -7.92,-20.13 -4.53,-42.37 2.94,-62.04 l 0.19,-0.67 m 29.51,60.23 c -2.28,15.8 14.52,29.79 29.72,24.74 12.79,-2.43 21.04,-17.18 17.29,-29.48 -2.89,11.28 -20.59,11.36 -22.66,-0.14 -2.63,-7.63 4.64,-12.13 10.06,-15.57 -14.8,-6.62 -34.72,3.49 -34.41,20.45 z"
   id="path130" />
    <path
   fill="#d0d2d3"
   opacity="1"
   d="m 503.13,334.95 c -12.01,-28.28 0.41,-63.17 26.08,-79.22 -7.47,19.67 -10.86,41.91 -2.94,62.04 11.23,31.11 44.48,50.81 77.18,47.73 l 0.93,0.04 c -33.52,26.12 -87.51,9.53 -101.25,-30.59 z"
   id="path131" />
    <path
   fill="#0594c1"
   opacity="1"
   d="m 483.09,367.89 c -21.17,-35.17 -12.93,-86.7 20.93,-110.86 -18.8,21.88 -26.43,53.43 -15.78,80.84 10.21,32.05 42.32,55.39 75.96,55.1 36.68,2.46 70.05,-25.07 80.52,-59.25 -2.4,41.84 -41.12,77.36 -82.88,77.37 -31.69,2.26 -63.21,-15.77 -78.75,-43.2 z"
   id="path132" />
    <path
   fill="#000000"
   opacity="1"
   d="m 558.91,315.29 c -0.31,-16.96 19.61,-27.07 34.41,-20.45 -5.42,3.44 -12.69,7.94 -10.06,15.57 2.07,11.5 19.77,11.42 22.66,0.14 3.75,12.3 -4.5,27.05 -17.29,29.48 -15.2,5.05 -32,-8.94 -29.72,-24.74 z"
   id="path133" />
    <path
   fill="#ffffff"
   opacity="1"
   d="m 193.09,365 c 22.41,-0.74 44.81,0.93 67.03,3.79 -15.29,5.3 -32.1,16.65 -32.07,34.55 -2.65,12.4 5.74,24.05 2.26,36.25 -5.13,20.14 2.08,41.37 15.59,56.53 -26.93,-9.23 -48.04,-33.59 -52.4,-61.85 -1.12,-23.06 -0.35,-46.19 -0.41,-69.27 z"
   id="path134" />
    <path
   fill="#000000"
   opacity="1"
   d="m 470.07,398.5 c 21.34,-3.24 43.94,5.2 58.59,20.84 6.08,6.29 6.42,19.57 -3.51,22 -21.81,5.67 -46.06,-4.47 -60.89,-20.65 -7.57,-6.97 -5.04,-20.99 5.81,-22.19 z"
   id="path135" />
    <path
   fill="#f6921e"
   opacity="1"
   d="m 695,408.03 c 24.54,0.28 49.12,-0.74 73.64,0.44 -25.5,13.2 -50.86,26.74 -76.41,39.82 1.53,-8.66 2.45,-17.42 2.86,-26.2 16.88,-2.13 33.51,-5.78 50.26,-8.76 -16.79,-0.66 -33.58,-0.3 -50.36,-0.28 -0.01,-1.68 0,-3.35 0.01,-5.02 z"
   id="path136" />
    <path
   fill="#ffffff"
   opacity="1"
   d="m 305.74,498.8 c 22.88,-39.64 65.67,-60.95 99.4,-89.99 46.12,18.5 91.03,47.31 117.96,90.14 -72.46,-0.01 -144.91,0.29 -217.36,-0.15 z"
   id="path137" />
    <path
   fill="#ffffff"
   opacity="1"
   d="m 694.99,413.05 c 16.78,-0.02 33.57,-0.38 50.36,0.28 -16.75,2.98 -33.38,6.63 -50.26,8.76 -0.1,-3.05 -0.07,-6.02 -0.1,-9.04 z"
   id="path138" />
    <path
   fill="#f6921e"
   opacity="1"
   d="m 363.29,527.2 c 7.41,-0.13 14.83,-0.31 22.25,-0.59 -4.26,13.22 -16.58,21.63 -25.33,31.8 5.09,21.92 -7.7,45.55 -27.77,54.76 -2.73,-5.49 -5.77,-10.9 -7.5,-16.81 9.36,-5.57 17.26,-14.88 16.95,-26.36 -14.13,4.35 -27.63,10.87 -42.8,11.13 -2.19,-6.05 -2.51,-12.56 -2.85,-18.91 25.8,-1.53 51.61,-13.91 67.05,-35.02 z"
   id="path139" />
    <path
   fill="#f6921e"
   opacity="1"
   d="m 189.27,551.17 c 23.52,0.87 47.85,-5.34 66.93,-19.42 4.84,5.35 10.83,9.52 17.06,13.11 -4.91,3.73 -9.98,7.25 -15.05,10.77 4.3,24.54 -13.94,47.47 -36.03,55.33 -5.56,-3.74 -5.61,-12.66 -7.87,-18.85 11.2,-4.78 22.05,-14 22.76,-26.98 -16.14,3.31 -32.16,8.03 -48.86,7.04 0.35,-7 0.7,-14.01 1.06,-21 z"
   id="path140" />
  </g>
  
  </g>
</svg>
